<?xml version="1.0" encoding="utf-8"?>
<!-- Generator: Adobe Illustrator 23.0.4, SVG Export Plug-In . SVG Version: 6.00 Build 0)  -->
<svg version="1.1" id="Layer_1" xmlns="http://www.w3.org/2000/svg" xmlns:xlink="http://www.w3.org/1999/xlink" x="0px" y="0px"
	 viewBox="0 0 207.5 63.8" style="enable-background:new 0 0 207.5 63.8;" xml:space="preserve">
<style type="text/css">
	.st0{fill-rule:evenodd;clip-rule:evenodd;fill:#42C0B2;}
</style>
<path class="st0" d="M33,17.6c1.1,0,1.5,1.1,1.5,2.7v11.4c0,6-3,6.2-4.2,5.6c-1.5-0.8-1.8-3.3-1.8-5.7V20.3c0-1.7,0.6-2.7,1.7-2.7
	V17h-6.2v0.6c1.1,0,1.5,1.1,1.5,2.7v12.5c0,2.3,1.4,5.9,4.5,6.2c3.2,0.2,5.3-1.8,5.3-7.4V20.3c0-1.7,0.6-2.7,1.5-2.7V17H33V17.6z"/>
<path class="st0" d="M44,17h-5.9v0.6c1.1,0,1.7,1.1,1.7,2.7V35c0,1.7-0.6,2.7-1.7,2.7v0.6h6.3c1.4,0,2.7-0.8,4.1-2.4
	c2.1-2.9,2.7-9,1.7-12.8C49.1,18.3,46.7,17,44,17z M47,33.2c-0.3,1.5-0.8,4.2-3.5,4.2c-0.8,0-0.8-0.3-0.8-2V19.8
	c0-1.7,0-1.8,0.8-1.8c1.1,0,1.8-0.2,2.7,1.7C47.7,22.5,47.7,29.5,47,33.2z"/>
<path class="st0" d="M56.6,37.4c-0.9-0.2-1.1-0.6-1.1-2.1v-7.2c2.1,0.1,2.6,0.8,3.2,4.7H59V22.4h-0.3c-0.6,3.9-1.1,4.4-3.2,4.7v-7.2
	c0-1.7,0.2-2,0.8-1.8H58c3,0.2,3.2,4.4,3.3,5.4h0.5V17H51v0.6c0.9,0,1.5,1.1,1.5,2.7V35c0,1.7-0.6,2.7-1.5,2.7v0.6h10.8l0.8-6.5
	h-0.5C60.8,36.4,59.3,37.7,56.6,37.4z"/>
<path class="st0" d="M22.4,12.6l-6.3-0.2v1.2h2L8.9,37.4H6.8v1.2h5.6v-1.2h-2.3l2.9-7.1c0,0,0.2,0,5.6,0c0,0,0,0,0,7.1h-2.6
	c0,0,0,0.1,0,1.2c0,0,0.5,0,8.9,0v-1.2h-2.4L22.4,12.6L22.4,12.6z M18.5,29.5h-5.1l5.1-13.3V29.5z"/>
<path class="st0" d="M135.8,12.4h-9.9v1.2h2.4v23.8h-2.7v1.2c2.1,0,5.4,0,9.2,0c0,0,0-0.2,0-1.2h-2.6c0,0,0,0,0-10.4h3.9
	c1.4,0,2.4-1.4,2.4-2.3V14.7C138.6,13.9,137.6,12.4,135.8,12.4z M134.8,25.2c0,0.5-0.3,0.8-0.8,0.8h-1.8v-5.6v-1.4v-5.4h1.8
	c0.5,0,0.8,0.3,0.8,0.6V25.2z"/>
<path class="st0" d="M154.5,29.3c1.1,0,1.5,1.1,1.5,2.7v4.1c0,0.5,0,1.2-0.8,1.7c-0.5,0.3-1.1,0.3-1.5,0.3c-0.3,0-0.8,0-1.1-0.5
	c-0.9-0.6-1.4-1.8-1.8-3.9c-0.3-1.4-0.5-3.6-0.5-5.9c0-2.4,0.2-4.7,0.5-6c0.5-2.1,0.9-3.3,1.8-3.9c0.3-0.3,0.8-0.5,1.1-0.5
	c1.2,0,3.9,2.1,4.8,6.8h0.5v-7.5h-0.5c-0.3,0.6-0.3,1.7-1.4,1.4c-0.6-0.3-1.8-1.2-3.5-1.4c-1.2,0-2.6,0.6-3.8,2
	c-1.8,1.8-2.7,5.4-2.7,9.2c0,3.6,0.9,7.2,2.7,9.2c1.2,1.2,2.6,2,3.8,2c0.6,0,1.2,0,1.8-0.2c0.5-0.2,3-0.8,3.5-1.5V32
	c0-1.7,0.6-2.7,1.7-2.7v-0.6h-6.2L154.5,29.3L154.5,29.3z"/>
<path class="st0" d="M169.7,17.6c1.1,0,1.5,1.1,1.5,2.7v11.4c0,6-3,6.2-4.2,5.6c-1.5-0.8-1.8-3.3-1.8-5.7V20.3
	c0-1.7,0.6-2.7,1.7-2.7V17h-6.2v0.6c1.1,0,1.5,1.1,1.5,2.7v12.5c0,2.3,1.4,5.9,4.5,6.2c3.2,0.2,5.3-1.8,5.3-7.4V20.3
	c0-1.7,0.6-2.7,1.5-2.7V17h-3.8V17.6z"/>
<path class="st0" d="M180.7,37.4c-1.1-0.2-1.1-0.6-1.1-2.1v-7.2c2.1,0.1,2.4,0.8,3,4.7h0.5V22.4h-0.5c-0.6,3.9-0.9,4.4-3,4.7v-7.2
	c0-1.7,0.2-2,0.8-1.8h1.7c3,0.2,3.2,4.4,3.3,5.4h0.3V17H175v0.6c1.1,0,1.7,1.1,1.7,2.7V35c0,1.7-0.6,2.7-1.7,2.7v0.6h10.8l0.9-6.5
	h-0.6C184.8,36.4,183.4,37.7,180.7,37.4z"/>
<path class="st0" d="M187.1,17v6.3h0.5c0.2-0.8,0.2-2.3,1.1-3.9c1.1-1.8,2.3-1.4,2.7-1.4v17c0,1.7-0.6,2.7-1.5,2.7v0.6h6v-0.6
	c-0.9,0-1.5-1.1-1.5-2.7V18c0.5,0,1.7-0.5,2.7,1.4c0.9,1.7,0.9,3.2,1.1,3.9h0.3V17H187.1z"/>
<path class="st0" d="M72.6,31.6L68.7,17h-5.3v0.6c1.4,0,1.8,0.5,1.8,2.7V35c0,1.7-0.5,2.7-1.7,2.7v0.6h4.2v-0.6
	c-1.1,0-1.7-1.1-1.7-2.7V19.7l5.1,18.7h0.5l5.3-18.7V35c0,1.7-0.6,2.7-1.7,2.7v0.6h6.6v-0.6c-1.1,0-1.7-1.1-1.7-2.7V20.3
	c0-1.7,0.6-2.7,1.7-2.7V17h-5.1L72.6,31.6z"/>
<path class="st0" d="M108.6,36.5l-3.6-8.7c1.1-0.5,2-1.2,2.6-2.9c0.8-2,0.3-4.5-0.5-5.9c-1.1-1.7-2.9-2.1-4.4-2.1h-5.9v0.6
	c0.9,0,1.5,1.1,1.5,2.7V35c0,1.7-0.6,2.7-1.5,2.7H97v0.6h5.9v-0.6c-0.9,0-1.5-1.1-1.5-2.7v-6.6h0.5l3.9,9.9h3.8v-0.6
	C109.2,37.7,109,37.9,108.6,36.5z M104.7,24.9c-0.6,2.9-2.4,2.4-3.3,2.4v-8c0-0.9,0.5-1.4,0.8-1.4c1.5-0.3,2.1,0.8,2.4,2
	C104.8,20.7,105,23.4,104.7,24.9z"/>
<path class="st0" d="M94.4,36.2L89.6,17h-0.5l-4.7,18.7c-0.5,1.8-0.9,2.1-1.4,2.1v0.6h3.8v-0.6c-1.4,0-1.8-1.1-1.4-2.7l0.6-2.9h4.4
	l0.9,3.6c0.3,1.7-0.9,2-1.7,2v0.6h5.9v-0.6C95.3,37.7,94.7,37.6,94.4,36.2z M86.4,31l1.8-7.8l2,7.8H86.4z"/>
<path class="st0" d="M140.1,17.6c1.2,0,1.8,1.1,1.8,2.7V35c0,1.7-0.6,2.7-1.8,2.7v0.6h6.5v-0.6c-1.2,0-1.7-1.1-1.7-2.7V20.3
	c0-1.7,0.5-2.7,1.7-2.7V17h-6.5V17.6z"/>
<path class="st0" d="M116.3,25.4c-2.4-1.2-3.2-2.9-3.2-4.2c0-0.8,0.3-3.5,2.1-3.5c2.7,0,3.6,4.2,4.1,5.9h0.5v-6.9h-0.5
	c-0.3,0.6-0.3,1.1-0.8,1.1c-1.1,0-2-1.1-4.1-1.1c-1.8,0-3.9,1.7-3.9,5.9c0,2,0.6,4.7,3,6.3c3.3,2.4,4.5,3.3,4.5,5.1
	c0,0.8-0.3,3.9-3,3.9c-2,0-3.3-3.2-3.5-4.4l-0.5-2.3h-0.5V39h0.5c0-0.6,0.2-1.1,0.3-1.1c1.1,0,2.9,1.1,4.1,1.1
	c4.5,0,5.3-4.1,5.3-6.2C120.8,29.8,119.4,27,116.3,25.4z"/>
<path class="st0" d="M7.2,53.4c0.9,0,1.1-0.3,1.2-1.1l1.1-5.1c0-0.2,0.2-0.3,0.2-0.5c0-0.5-0.5-0.6-0.9-0.6v-0.3h3v0.3
	c-0.9,0-1.1,0.3-1.2,1.1l-1.1,5.1c0,0.2,0,0.3,0,0.5c0,0.3,0.2,0.3,0.8,0.3H11c0.9,0,1.4-0.3,1.7-1.2h0.2l-0.3,1.7H7.2V53.4z"/>
<path class="st0" d="M15.3,50.1c0.2-0.6,0.6-1.5,1.4-1.5c0.5,0,0.8,0.3,0.8,0.6c0,0.8-0.6,0.9-1.1,0.9H15.3z M17.6,53.1
	c-0.3,0.1-0.5,0.1-0.8,0.1c-1.4,0-1.7-0.8-1.7-1.7c0-0.5,0-0.9,0.2-1.2h1.2c0.9,0,1.8-0.1,1.8-1.1c0-0.8-0.8-1.2-1.5-1.2
	c-2,0-2.7,2.1-2.7,3.6c0,1.4,0.8,2,1.8,2c0.8,0,1.4-0.2,1.7-0.3V53.1z"/>
<path class="st0" d="M24.5,49.5c0-0.2,0-0.3,0-0.5c0,0,0-0.2-0.2-0.2c-0.2,0-0.6,0.5-0.9,0.8h-0.2c0.3-0.5,1.2-1.5,1.7-1.5
	c0.3,0,0.5,0.3,0.5,0.6c0,0.2,0,0.5,0,0.8L25.1,51v0.2c0.3-0.9,1.2-3,2.4-3c0.5,0,0.8,0.3,0.8,0.8c0,0.3-0.2,0.5-0.2,0.8L27.8,51
	v0.2c0.5-0.9,1.4-3,2.6-3c0.5,0,0.6,0.3,0.6,0.8c0,0.2,0,0.5,0,0.8l-0.8,2.9c0,0.1,0,0.3,0,0.3c0,0.2,0,0.2,0.2,0.2
	c0.2,0,0.6-0.5,0.9-0.8l0.2,0.2c-0.3,0.3-1.2,1.4-1.7,1.4c-0.3,0-0.5-0.2-0.5-0.5c0-0.3,0-0.6,0-0.8l0.8-2.9c0-0.2,0-0.3,0-0.5
	c0-0.2,0-0.3-0.3-0.3c-0.8,0-2.3,3.6-2.4,4.7h-0.9l0.8-3.9c0-0.2,0-0.3,0-0.5c0-0.2,0-0.3-0.2-0.3c-0.8,0-2,2.3-2.6,4.7h-0.9
	L24.5,49.5z"/>
<path class="st0" d="M33.6,52.2c0-1.2,0.9-3.6,2.1-3.6c0.3,0,0.5,0.5,0.5,0.8c0,1.4-1.1,3.8-2,3.8C33.9,53.1,33.6,53,33.6,52.2z
	 M35.5,52.5c0,0.1,0,0.5,0,0.8c0,0.2,0.2,0.5,0.5,0.5c0.5,0,1.4-1.1,1.7-1.4l-0.2-0.2c-0.3,0.3-0.8,0.8-0.9,0.8
	c-0.2,0-0.2,0-0.2-0.2c0,0,0-0.2,0-0.3l0.9-4.2h-0.9l-0.2,0.6c-0.2-0.3-0.3-0.8-0.9-0.8c-1.7,0-2.7,3-2.7,4.2c0,0.6,0.2,1.4,1.1,1.4
	c1.1,0,1.7-1.4,2-1.8L35.5,52.5z"/>
<path class="st0" d="M40.3,46c0.3-0.3,0.5-0.5,0.6-0.5c0.2,0,0.3,0.1,0.5,0.5l0.6,1.4h-0.5l-0.8-0.8l-1.2,0.8h-0.5L40.3,46z
	 M41.4,52.4c-0.3,0.3-1.2,1.4-1.7,1.4c-0.3,0-0.5-0.2-0.5-0.5c0-0.3,0-0.6,0-0.8l0.6-3C40,49.3,40,49.2,40,49c0-0.2-0.2-0.2-0.2-0.2
	c-0.2,0-0.8,0.5-1.1,0.8h-0.2c0.5-0.5,1.2-1.5,1.8-1.5c0.3,0,0.5,0.3,0.5,0.6c0,0.2,0,0.5-0.2,0.8l-0.6,3c0,0.1,0,0.3,0,0.3
	c0,0.2,0,0.2,0.2,0.2c0.2,0,0.6-0.5,0.9-0.8L41.4,52.4z"/>
<path class="st0" d="M45.3,52.4c-0.5,0.5-1.4,1.4-2,1.4c-0.3,0-0.5-0.2-0.5-0.5c0-0.3,0-0.6,0.2-0.8l0.8-3.8h-1.1l0.2-0.5
	c1.1,0,1.7-0.5,2-1.7h0.3l-0.5,1.7h1.5v0.5h-1.5L44,52.5c0,0.1-0.2,0.3-0.2,0.3C43.8,53,44,53,44,53c0.3,0,0.9-0.5,1.2-0.8
	L45.3,52.4z"/>
<path class="st0" d="M47.9,49.5c0-0.2,0-0.3,0-0.5c0,0,0-0.2-0.2-0.2c-0.2,0-0.6,0.5-0.9,0.8h-0.2c0.3-0.5,1.1-1.5,1.7-1.5
	c0.3,0,0.5,0.3,0.5,0.6c0,0.2,0,0.5,0,0.8l-0.2,0.8c0.2-0.5,0.8-2.1,1.7-2.1c0.5,0,0.6,0.3,0.6,0.6c0,0.3-0.3,0.6-0.6,0.6
	c-0.2,0-0.3-0.2-0.5-0.2c-0.3,0-1.4,1.4-2,4.4H47L47.9,49.5z"/>
<path class="st0" d="M52.7,50.1c0-0.6,0.5-1.5,1.4-1.5c0.5,0,0.8,0.3,0.8,0.6c0,0.8-0.8,0.9-1.2,0.9H52.7z M55,53.1
	c-0.3,0.1-0.6,0.1-0.8,0.1c-1.5,0-1.8-0.8-1.8-1.7c0-0.5,0.2-0.9,0.2-1.2h1.2c0.9,0,2-0.1,2-1.1c0-0.8-0.8-1.2-1.5-1.2
	c-2.1,0-2.9,2.1-2.9,3.6c0,1.4,0.8,2,2,2c0.8,0,1.2-0.2,1.5-0.3L55,53.1z"/>
<path class="st0" d="M61.6,52.2c0-1.1,0.8-3.6,2-3.6c0.3,0,0.6,0.3,0.6,0.8c0,1.1-1.1,3.8-2.1,3.8C61.9,53.1,61.6,53,61.6,52.2z
	 M63.5,52.5c-0.2,0.1-0.2,0.5-0.2,0.8c0,0.2,0.2,0.5,0.5,0.5c0.6,0,1.5-1.1,1.8-1.4l-0.2-0.2c-0.3,0.3-0.8,0.8-1.1,0.8
	c0,0-0.2,0-0.2-0.2c0,0,0-0.2,0.2-0.3l1.4-6.9l-2,0.1V46c0.5,0,0.8,0,0.8,0.5c0,0.2,0,0.3,0,0.5l-0.3,1.8c-0.2-0.3-0.5-0.6-1.1-0.6
	c-1.5,0-2.7,3-2.7,4.2c0,0.6,0.2,1.4,1.1,1.4c1.1,0,1.8-1.5,2-2h0.2L63.5,52.5z"/>
<path class="st0" d="M68.1,50.1c0.2-0.6,0.6-1.5,1.5-1.5c0.3,0,0.6,0.3,0.6,0.6c0,0.8-0.6,0.9-1.1,0.9H68.1z M70.3,53.1
	c-0.2,0.1-0.5,0.1-0.8,0.1c-1.4,0-1.7-0.8-1.7-1.7c0-0.5,0-0.9,0.2-1.2h1.2c0.9,0,1.8-0.1,1.8-1.1c0-0.8-0.6-1.2-1.4-1.2
	c-2.1,0-2.9,2.1-2.9,3.6c0,1.4,0.8,2,1.8,2c0.8,0,1.4-0.2,1.7-0.3V53.1z"/>
<path class="st0" d="M78.5,52.4c-0.3,0.3-1.1,1.4-1.7,1.4c-0.3,0-0.5-0.2-0.5-0.5c0-0.3,0-0.6,0-0.8l1.2-5.6c0-0.2,0-0.3,0-0.5
	c0-0.5-0.3-0.5-0.9-0.5l0.2-0.3l1.8-0.1l-1.4,6.9c0,0.1,0,0.3,0,0.3c0,0.2,0,0.2,0.2,0.2c0.2,0,0.6-0.5,0.9-0.8L78.5,52.4z"/>
<path class="st0" d="M80.7,48.3c0.3-0.2,0.8-0.6,0.8-1.1c0-0.3-0.5-0.2-0.5-0.8c0-0.3,0.3-0.6,0.8-0.6c0.3,0,0.6,0.3,0.6,0.8
	c0,0.8-0.9,1.4-1.2,1.7H80.7z"/>
<path class="st0" d="M84.8,46.9c0-0.2,0-0.3,0-0.5c0-0.5-0.3-0.5-0.9-0.5l0.2-0.3l2-0.1l-1.2,5.7c0.5-1.1,1.5-3.2,2.6-3.2
	c0.5,0,0.8,0.3,0.8,0.8c0,0.2-0.2,0.5-0.2,0.8l-0.6,2.9c0,0.1-0.2,0.3-0.2,0.3c0,0.2,0.2,0.2,0.2,0.2c0.3,0,0.8-0.5,1.1-0.8l0.2,0.2
	c-0.3,0.3-1.2,1.4-1.8,1.4c-0.3,0-0.5-0.2-0.5-0.5c0-0.3,0-0.6,0.2-0.8l0.6-2.9c0-0.2,0.2-0.3,0.2-0.5c0-0.1-0.2-0.3-0.3-0.3
	c-0.9,0-2.3,3.5-2.6,4.7h-0.9L84.8,46.9z"/>
<path class="st0" d="M91,52.1c0-1.1,0.5-3.5,1.7-3.5c0.6,0,0.8,0.5,0.8,1.2c0,1.1-0.5,3.6-1.7,3.6C91.3,53.4,91,53,91,52.1z
	 M91.7,53.7c1.8,0,2.7-2,2.7-3.5c0-1.2-0.5-2.1-1.8-2.1c-1.8,0-2.7,2.1-2.7,3.6C89.9,52.8,90.5,53.7,91.7,53.7z"/>
<path class="st0" d="M96.7,49.5c0-0.2,0.2-0.3,0.2-0.5l-0.2-0.2c-0.3,0-0.8,0.5-1.1,0.8h-0.2c0.3-0.5,1.2-1.5,1.8-1.5
	c0.3,0,0.5,0.3,0.5,0.6c0,0.2,0,0.5-0.2,0.8l-0.2,0.8c0.3-0.5,0.9-2.1,1.8-2.1c0.3,0,0.5,0.3,0.5,0.6c0,0.3-0.2,0.6-0.5,0.6
	c-0.3,0-0.5-0.2-0.6-0.2c-0.3,0-1.2,1.4-1.8,4.4h-0.9L96.7,49.5z"/>
<path class="st0" d="M102.6,52.4c-0.3,0.3-1.1,1.4-1.7,1.4c-0.3,0-0.5-0.2-0.5-0.5c0-0.3,0-0.6,0-0.8l1.2-5.6c0-0.2,0-0.3,0-0.5
	c0-0.5-0.3-0.5-0.9-0.5l0.2-0.3l1.8-0.1l-1.4,6.9c0,0.1,0,0.3,0,0.3c0,0.2,0,0.2,0.2,0.2c0.2,0,0.6-0.5,0.9-0.8L102.6,52.4z"/>
<path class="st0" d="M104.8,52.1c0-1.1,0.6-3.5,1.8-3.5c0.5,0,0.8,0.5,0.8,1.2c0,1.1-0.5,3.6-1.7,3.6
	C105.3,53.4,104.8,53,104.8,52.1z M105.7,53.7c1.7,0,2.7-2,2.7-3.5c0-1.2-0.6-2.1-1.8-2.1c-1.8,0-2.7,2.1-2.7,3.6
	C103.9,52.8,104.4,53.7,105.7,53.7z"/>
<path class="st0" d="M110.7,52.2c0-1.2,0.9-3.6,2-3.6c0.2,0,0.6,0.2,0.6,0.8c0,1.1-1.1,3.8-2.1,3.8C110.8,53.1,110.7,53,110.7,52.2z
	 M114.3,48.3h-0.9v0.5c-0.2-0.3-0.5-0.6-0.9-0.6c-1.7,0-2.9,3-2.9,4.2c0,0.6,0.2,1.4,1.1,1.4c1.2,0,1.8-1.4,2-2h0.2l-0.5,2
	c-0.2,0.6-0.5,2-1.4,2c-0.8,0-0.6-0.9-1.2-0.9c-0.3,0-0.6,0.3-0.6,0.6c0,0.5,0.6,0.6,1.4,0.6c2,0,2.4-1.1,2.7-2.3L114.3,48.3z"/>
<path class="st0" d="M116.7,50.1c0.2-0.6,0.6-1.5,1.5-1.5c0.3,0,0.6,0.3,0.6,0.6c0,0.8-0.6,0.9-1.1,0.9H116.7z M119,53.1
	c-0.2,0.1-0.5,0.1-0.8,0.1c-1.4,0-1.7-0.8-1.7-1.7c0-0.5,0-0.9,0.2-1.2h1.2c0.9,0,1.8-0.1,1.8-1.1c0-0.8-0.6-1.2-1.4-1.2
	c-2.1,0-2.9,2.1-2.9,3.6c0,1.4,0.8,2,1.8,2c0.8,0,1.4-0.2,1.7-0.3V53.1z"/>
<path class="st0" d="M122,49.5c0-0.2,0-0.3,0-0.5c0,0,0-0.2-0.1-0.2s-0.8,0.5-1.1,0.8h-0.2c0.5-0.5,1.2-1.5,1.8-1.5
	c0.3,0,0.5,0.3,0.5,0.6c0,0.2,0,0.5-0.1,0.8l-0.2,0.8c0.3-0.5,0.9-2.1,1.8-2.1c0.3,0,0.6,0.3,0.6,0.6c0,0.3-0.3,0.6-0.6,0.6
	s-0.3-0.2-0.5-0.2c-0.3,0-1.4,1.4-2,4.4h-0.9L122,49.5z"/>
<path class="st0" d="M128,52.4c-0.3,0.3-1.2,1.4-1.8,1.4c-0.3,0-0.5-0.2-0.5-0.5c0-0.3,0.2-0.6,0.2-0.8l0.6-3c0-0.2,0-0.3,0-0.5
	v-0.2c-0.3,0-0.8,0.5-1.1,0.8h-0.1c0.3-0.5,1.2-1.5,1.8-1.5c0.2,0,0.5,0.3,0.5,0.6c0,0.2-0.2,0.5-0.2,0.8l-0.6,3
	c0,0.1-0.2,0.3-0.2,0.3c0,0.2,0.2,0.2,0.2,0.2c0.3,0,0.8-0.5,1.1-0.8L128,52.4z M126.7,46.5c0-0.3,0.3-0.6,0.8-0.6
	c0.3,0,0.6,0.3,0.6,0.6c0,0.3-0.3,0.6-0.6,0.6C127,47.1,126.7,46.8,126.7,46.5z"/>
<path class="st0" d="M130.6,50.1c0-0.6,0.5-1.5,1.4-1.5c0.5,0,0.8,0.3,0.8,0.6c0,0.8-0.8,0.9-1.2,0.9H130.6z M132.8,53.1
	c-0.3,0.1-0.6,0.1-0.8,0.1c-1.5,0-1.8-0.8-1.8-1.7c0-0.5,0.2-0.9,0.2-1.2h1.2c0.9,0,2-0.1,2-1.1c0-0.8-0.8-1.2-1.5-1.2
	c-2.1,0-2.9,2.1-2.9,3.6c0,1.4,0.8,2,2,2c0.8,0,1.2-0.2,1.5-0.3L132.8,53.1z"/>
<path class="st0" d="M139.5,52.2c0-1.1,0.8-3.6,2-3.6c0.3,0,0.6,0.3,0.6,0.8c0,1.1-1.1,3.8-2.1,3.8C139.8,53.1,139.5,53,139.5,52.2z
	 M141.4,52.5c-0.2,0.1-0.2,0.5-0.2,0.8c0,0.2,0.2,0.5,0.5,0.5c0.6,0,1.4-1.1,1.8-1.4l-0.2-0.2c-0.3,0.3-0.9,0.8-1.1,0.8
	c0,0-0.1,0-0.1-0.2c0,0,0-0.2,0.1-0.3l1.4-6.9l-2,0.1V46c0.5,0,0.8,0,0.8,0.5c0,0.2,0,0.3,0,0.5l-0.3,1.8c-0.2-0.3-0.5-0.6-1.1-0.6
	c-1.5,0-2.7,3-2.7,4.2c0,0.6,0.2,1.4,1.1,1.4c1.1,0,1.8-1.5,2-2h0.2L141.4,52.5z"/>
<path class="st0" d="M145.9,50.1c0.2-0.6,0.6-1.5,1.4-1.5c0.5,0,0.8,0.3,0.8,0.6c0,0.8-0.6,0.9-1.1,0.9H145.9z M148.2,53.1
	c-0.1,0.1-0.5,0.1-0.8,0.1c-1.4,0-1.7-0.8-1.7-1.7c0-0.5,0-0.9,0.1-1.2h1.2c0.9,0,1.8-0.1,1.8-1.1c0-0.8-0.6-1.2-1.4-1.2
	c-2.1,0-2.9,2.1-2.9,3.6c0,1.4,0.8,2,1.8,2c0.8,0,1.4-0.2,1.7-0.3V53.1z"/>
<path class="st0" d="M151.4,52.7c0-1.4,1.1-3.9,2.1-3.9c0.3,0,0.5,0.5,0.5,0.9c0,1.4-0.9,3.8-2,3.8C151.5,53.4,151.4,53,151.4,52.7z
	 M148.6,56h3v-0.2c-0.5,0-0.9,0-0.9-0.6c0-0.2,0-0.3,0.2-0.5l0.2-1.5h0.2c0.2,0.3,0.3,0.5,0.9,0.5c1.7,0,2.9-2.7,2.9-4.2
	c0-0.9-0.5-1.4-1.1-1.4c-1.1,0-2,1.5-2.1,1.8l0.2-0.5c0-0.3,0-0.6,0-0.8c0-0.3-0.2-0.6-0.5-0.6c-0.6,0-1.4,1.1-1.8,1.5h0.3
	c0.2-0.3,0.8-0.8,0.9-0.8s0.2,0.2,0.2,0.2c0,0.1,0,0.3,0,0.5l-1.1,5.3c-0.2,0.8-0.5,1.1-1.4,1.1L148.6,56L148.6,56z"/>
<path class="st0" d="M159.8,51.2c-0.5,1.4-1.5,2.6-2.4,2.6c-0.5,0-0.8-0.3-0.8-0.9c0-0.2,0.2-0.6,0.2-0.9l0.6-2.4c0-0.2,0-0.3,0-0.5
	v-0.2c-0.3,0-0.8,0.5-1.1,0.8h-0.1c0.3-0.5,1.2-1.5,1.8-1.5c0.3,0,0.5,0.3,0.5,0.6c0,0.2-0.2,0.5-0.2,0.8l-0.6,2.7
	c0,0.2-0.2,0.5-0.2,0.5c0,0.2,0.2,0.3,0.3,0.3c0.8,0,2.4-2.6,2.6-4.7h0.9l-0.9,4.2c0,0.1,0,0.3,0,0.3c0,0.2,0,0.2,0.2,0.2
	c0.2,0,0.8-0.5,1.1-0.8l0.2,0.2c-0.5,0.3-1.2,1.4-1.8,1.4c-0.3,0-0.5-0.2-0.5-0.5c0-0.3,0-0.6,0.2-0.8L159.8,51.2z"/>
<path class="st0" d="M165.5,52.4c-0.5,0.3-1.2,1.4-1.8,1.4c-0.3,0-0.5-0.2-0.5-0.5c0-0.3,0-0.6,0.1-0.8l0.6-3c0-0.2,0-0.3,0-0.5
	c0,0,0-0.2-0.2-0.2c-0.2,0-0.6,0.5-0.9,0.8h-0.2c0.3-0.5,1.2-1.5,1.7-1.5c0.3,0,0.5,0.3,0.5,0.6c0,0.2,0,0.5,0,0.8l-0.6,3
	c-0.2,0.1-0.2,0.3-0.2,0.3c0,0.2,0.2,0.2,0.2,0.2c0.1,0,0.8-0.5,1.1-0.8L165.5,52.4z M164.2,46.5c0-0.3,0.3-0.6,0.6-0.6
	c0.5,0,0.8,0.3,0.8,0.6c0,0.3-0.3,0.6-0.8,0.6C164.5,47.1,164.2,46.8,164.2,46.5z"/>
<path class="st0" d="M170,49.6c0-0.6-0.3-1.1-1.1-1.1c-0.5,0-0.9,0.3-0.9,0.9c0,1.1,2,0.9,2,2.4c0,1.4-1.1,1.8-2.4,1.8
	c-0.6,0-1.1-0.2-1.2-0.2l0.2-1.4h0.3c0,0.5,0.2,1.2,1.1,1.2c0.6,0,1.2-0.5,1.2-1.2c0-1.1-2-1.1-2-2.4c0-1.1,0.9-1.7,2-1.7
	c0.6,0,1.1,0.2,1.4,0.3l-0.2,1.2L170,49.6L170,49.6z"/>
<path class="st0" d="M174.4,53.4c0.9,0,1.1-0.3,1.4-1.1l0.8-3.8c0-0.3,0-0.6,0-0.9c0-0.3-0.2-0.5-0.6-0.5c-0.1,0-0.3,0-0.5,0v-0.2
	l1.7-0.5h0.6l-1.1,5.7c-0.2,0.2-0.2,0.3-0.2,0.5c0,0.5,0.5,0.6,0.8,0.6v0.2h-3L174.4,53.4z"/>
<path class="st0" d="M181,48.6c0-0.6,0.3-1.7,1.4-1.7c0.5,0,0.9,0.3,0.9,1.1c0,0.9-0.5,1.7-1.4,1.7C181.3,49.6,181,49.3,181,48.6z
	 M181.3,53.7c1.5,0,2.4-0.9,2.4-2.3c0-1.1-0.6-1.4-1.1-1.5c0.9-0.2,1.7-0.6,1.7-2c0-1.1-0.8-1.5-1.8-1.5c-1.5,0-2.6,0.8-2.6,2
	c0,0.9,0.5,1.2,0.9,1.5c-0.9,0-1.7,0.9-1.7,2.1C179.2,53.3,180,53.7,181.3,53.7z M180.3,52.2c0-1.1,0.5-2.1,1.4-2.1
	c0.6,0,1.2,0.5,1.2,1.2c0,1.1-0.5,2-1.5,2C180.6,53.3,180.3,52.8,180.3,52.2z"/>
<path class="st0" d="M189.5,47.1h-2.1c-0.9,0-1.1,0.5-1.2,1.1h-0.3l0.3-1.5h4.4v0.5l-4.1,6.5h-1.1L189.5,47.1z"/>
<path class="st0" d="M192.2,49.6c0.2-0.2,0.5-0.3,1.2-0.3c1.2,0,1.8,0.8,1.8,1.8c0,1.2-0.9,2.6-2.9,2.6c-1.1,0-1.8-0.3-2.1-0.3
	l0.2-0.5c0.2,0,0.8,0.3,1.5,0.3c1.4,0,2.3-0.9,2.3-2.1c0-0.9-0.6-1.4-1.2-1.4c-0.8,0-1.1,0.5-1.2,0.6h-0.6l0.9-3.8h3.6l-0.1,0.5
	h-2.7L192.2,49.6z"/>
</svg>
