<?xml version="1.0" encoding="utf-8"?>
<!-- Generator: Adobe Illustrator 23.0.4, SVG Export Plug-In . SVG Version: 6.00 Build 0)  -->
<svg version="1.1" id="Layer_1" xmlns="http://www.w3.org/2000/svg" xmlns:xlink="http://www.w3.org/1999/xlink" x="0px" y="0px"
	 viewBox="0 0 144 59" style="enable-background:new 0 0 144 59;" xml:space="preserve">
<style type="text/css">
	.st0{clip-path:url(#SVGID_2_);}
	.st1{fill:#42C0B2;}
</style>
<g>
	<defs>
		<rect id="SVGID_1_" x="10.3" y="5.3" width="143.2" height="58.7"/>
	</defs>
	<clipPath id="SVGID_2_">
		<use xlink:href="#SVGID_1_"  style="overflow:visible;"/>
	</clipPath>
	<g class="st0">
		<path class="st1" d="M123.6,40.4c-0.3,0-0.6-0.2-0.6-0.6V23.7h-5.5c-0.3,0-0.6-0.2-0.6-0.6v-2.2c0-0.3,0.2-0.6,0.6-0.6h14.7
			c0.3,0,0.6,0.2,0.6,0.6v2.2c0,0.3-0.2,0.6-0.6,0.6h-5.5v16.2c0,0.3-0.2,0.6-0.6,0.6H123.6z M81.4,32.3l-2.9-8.3l-2.9,8.3H81.4z
			 M87.8,39.8c0.1,0.3-0.1,0.7-0.4,0.7h-2.6c-0.4,0-0.6-0.2-0.7-0.5l-1.5-4.3h-8.1l-1.5,4.3c-0.1,0.4-0.4,0.5-0.7,0.5h-2.5
			c-0.3,0-0.6-0.3-0.4-0.7l6.8-18.9c0.1-0.4,0.4-0.5,0.7-0.5h3.4c0.4,0,0.6,0.1,0.8,0.5L87.8,39.8z M107.4,37.7
			c1.6,0,2.7-0.8,3.6-2.1l-4.1-4.4c-1.6,0.9-2.6,1.8-2.6,3.5C104.3,36.5,105.7,37.7,107.4,37.7z M108.5,23c-1.3,0-2.1,0.8-2.1,1.9
			c0,0.9,0.5,1.6,1.5,2.7c1.8-1,2.5-1.7,2.5-2.8C110.5,23.9,109.8,23,108.5,23z M119.7,39.7c0.3,0.4,0.1,0.7-0.3,0.7h-3.2
			c-0.4,0-0.7-0.1-0.9-0.4l-1.9-2.1c-1.3,1.7-3.1,3-6,3c-3.7,0-6.6-2.2-6.6-6c0-2.9,1.6-4.5,3.9-5.8c-1.2-1.3-1.7-2.7-1.7-4
			c0-3.1,2.2-5.2,5.5-5.2c3.4,0,5.4,2,5.4,4.9c0,2.5-1.8,3.9-3.7,5l2.8,3l1.6-2.8c0.2-0.3,0.4-0.5,0.8-0.5h2.4
			c0.4,0,0.6,0.3,0.4,0.7l-2.8,4.8L119.7,39.7z M94.5,40.4c0.3,0,0.6-0.2,0.6-0.6V23.7h5.5c0.3,0,0.6-0.2,0.6-0.6v-2.2
			c0-0.3-0.2-0.6-0.6-0.6H85.9c-0.3,0-0.6,0.2-0.6,0.6v2.2c0,0.3,0.2,0.6,0.6,0.6h5.5v16.2c0,0.3,0.2,0.6,0.6,0.6H94.5z"/>
		<path class="st1" d="M20,50.2c4.3,3.3,9.6,5.3,15.4,5.3c6.4,0,12.2-2.4,16.6-6.2c0.1,0,0-0.1,0,0c-2,1.3-7.6,4.2-16.6,4.2
			C27.7,53.4,22.8,51.7,20,50.2C20,50.1,20,50.1,20,50.2z M37.2,51.5c6.2,0,13-1.7,17.1-5c1.1-0.9,2.2-2.1,3.1-3.7
			c0.5-0.9,1.1-2,1.5-3.1c0-0.1,0-0.1-0.1,0c-3.8,5.6-14.8,9-26.1,9c-8,0-16.6-2.6-20-7.4c0,0-0.1,0,0,0
			C15.9,47.8,25.4,51.5,37.2,51.5z M30.4,40.4c-12.9,0-19-6-20.1-10.1c0-0.1-0.1,0-0.1,0c0,1.4,0.1,3.1,0.4,4.3
			c0.1,0.6,0.6,1.5,1.3,2.2c3.1,3.2,10.9,7.8,24.4,7.8c18.4,0,22.6-6.1,23.4-8.1c0.6-1.4,0.9-4,0.9-6.2c0-0.5,0-0.9,0-1.4
			c0-0.1,0-0.1-0.1,0C59.6,33.9,44,40.4,30.4,40.4z M12.7,19.6c-0.7,1.5-1.6,3.9-1.8,5.2c-0.1,0.5-0.1,0.8,0.1,1.2
			c1.5,3.3,9.4,8.5,27.6,8.5c11.1,0,19.8-2.7,21.2-7.7c0.3-0.9,0.3-1.9-0.1-3.2c-0.4-1.5-1.1-3.2-1.6-4.3c0,0-0.1,0,0,0
			C58.2,25.8,40,30,30.8,30c-10,0-18.3-4-18.3-9C12.5,20.6,12.6,20.1,12.7,19.6C12.8,19.6,12.7,19.6,12.7,19.6z M52.1,11.6
			c0.1,0.2,0.2,0.3,0.2,0.6c0,2.8-8.6,7.7-22.2,7.7c-10,0-11.9-3.7-11.9-6.1c0-0.8,0.3-1.7,1-2.6c0-0.1,0-0.1,0,0
			c-1.3,1.1-2.5,2.3-3.5,3.7c-0.5,0.6-0.8,1.2-0.8,1.5c0,4.9,12.3,8.4,23.8,8.4c12.2,0,17.7-4,17.7-7.5c0-1.2-0.5-2-1.7-3.4
			C53.7,13,52.9,12.3,52.1,11.6C52.1,11.5,52.1,11.6,52.1,11.6z M48.3,8.8c-3.8-2.3-8.2-3.5-12.9-3.5c-4.8,0-9.3,1.3-13.1,3.6
			c-1.1,0.7-1.8,1.3-1.8,2c0,2.1,5,4.4,13.8,4.4c8.7,0,15.5-2.5,15.5-4.9C49.9,9.8,49.4,9.4,48.3,8.8z"/>
	</g>
</g>
</svg>
