<svg width="120" height="27" viewBox="0 0 120 27" fill="none" xmlns="http://www.w3.org/2000/svg">
<g clip-path="url(#clip0)">
<path d="M117.358 0.16626L110.817 14.2357L108.357 8.90468H105.697L109.742 17.6248H111.892L120 0.16626H117.358Z" fill="#3CB79F"/>
<path d="M89.2983 26.2899H94.564V16.5989C94.564 14.3822 95.8395 12.8251 97.7344 12.8251C99.5565 12.8251 100.504 14.1074 100.504 15.9577V26.2899H105.77V14.9501C105.77 11.103 103.474 8.39173 99.7569 8.39173C97.3882 8.39173 95.7301 9.41763 94.4911 11.2862H94.3818V8.90468H89.2801L89.2983 26.2899ZM78.949 8.42837C73.4464 8.42837 69.7658 12.4037 69.7658 17.6431C69.7658 22.8458 73.4464 26.8578 78.949 26.8578C84.4516 26.8578 88.1322 22.8458 88.1322 17.6431C88.1504 12.4037 84.4516 8.42837 78.949 8.42837ZM78.9126 22.9374C76.4163 22.9374 75.0862 20.8307 75.0862 17.6431C75.0862 14.4189 76.3981 12.3488 78.9126 12.3488C81.4088 12.3488 82.7935 14.4189 82.7935 17.6431C82.8118 20.8307 81.427 22.9374 78.9126 22.9374ZM54.752 26.2899H69.5472V22.1131H61.1657V22.0031L69.1828 12.9716V8.88636H54.752V13.0815H62.8602V13.1914L54.752 22.2963V26.2899ZM47.9922 26.2899H53.2944V8.90468H47.9922V26.2899ZM35.6933 26.2899H40.9773V18.3026C40.9773 14.6753 43.1455 13.0632 46.4435 13.5212H46.5528V8.94132C46.2795 8.8314 45.9697 8.81308 45.4778 8.81308C43.4188 8.81308 42.0341 9.7657 40.8497 11.7992H40.7404V8.90468H35.6933V26.2899ZM26 22.9558C23.6677 22.9558 22.2465 21.4352 21.9732 19.0903H34.4361C34.4725 15.3532 33.4886 12.3671 31.4297 10.4985C29.9721 9.14283 28.0589 8.39173 25.6173 8.39173C20.4062 8.39173 16.7986 12.3671 16.7986 17.5698C16.7986 22.8092 20.2423 26.8029 25.9635 26.8029C28.1318 26.8029 29.8445 26.2166 31.2657 25.2457C32.778 24.2015 33.8713 22.6626 34.1628 21.1421H29.0975C28.6055 22.2779 27.5487 22.9558 26 22.9558ZM25.7267 12.1839C27.5852 12.1839 28.8606 13.5762 29.0792 15.6096H22.0097C22.4287 13.5578 23.5402 12.1839 25.7267 12.1839ZM6.26707 26.2899H11.8061L17.8189 8.90468H12.5167L9.14592 20.0796H9.07304L5.70223 8.90468H0.254272L6.26707 26.2899ZM47.9922 2.71268H53.2944V7.43912H47.9922V2.71268Z" fill="#3CB79F"/>
</g>
<defs>
<clipPath id="clip0">
<rect width="119.928" height="26.7465" fill="white" transform="translate(0.0720825 0.16626)"/>
</clipPath>
</defs>
</svg>
