<svg width="175" height="209" viewBox="0 0 175 209" fill="none" xmlns="http://www.w3.org/2000/svg">
<path d="M47.9505 17.1357L48.8222 12.8097L56.2313 15.213L60.3716 19.7793L59.0641 24.1053L59.5 27.4699L55.3596 25.3069L51.2192 20.7406L47.9505 17.1357Z" fill="#272727"/>
<path d="M71.4853 180.56L74.9719 180.08L79.766 182.483L78.4585 183.925L78.2406 188.011L74.9719 187.77L71.4853 180.56Z" fill="#272727"/>
<path d="M119.485 58.1422L122.972 57.6616L127.766 60.0649L126.459 61.5069L126.241 65.5925L122.972 65.3522L119.485 58.1422Z" fill="#272727"/>
<path d="M23.4853 47.1136L26.9719 46.6329L31.766 49.0362L30.4585 50.4782L30.2406 54.5638L26.9719 54.3235L23.4853 47.1136Z" fill="#272727"/>
<path d="M89.3542 179.599L91.9692 176.715L97.4171 178.397L106.569 179.839L102.647 184.165L97.4171 185.127L89.3542 179.599Z" fill="#272727"/>
<path d="M4.99999 105.322L7.61497 102.438L13.0628 104.121L22.2152 105.562L18.2928 109.888L13.0628 110.85L4.99999 105.322Z" fill="#272727"/>
<path d="M152.985 175.273L148.191 169.986L155.6 169.505L161.266 169.505L166.278 175.033L167.368 182.483L163.881 183.444L158.215 177.196L152.985 175.273Z" fill="#272727"/>
<path d="M138.397 75.8279L137.09 74.3859L146.242 75.3472L150.6 77.2698L154.087 81.1151L152.997 86.6427L146.242 82.0764L139.705 79.6731L138.397 75.8279Z" fill="#272727"/>
<path d="M44.6818 101.972L47.0788 99.3286L54.27 103.414L53.8342 115.431L48.3863 106.058L44.6818 101.972Z" fill="#272727"/>
<path d="M76.9331 112.066L78.2406 107.74L87.6109 115.671L86.3034 122.4L80.6376 116.152L76.9331 112.066Z" fill="#272727"/>
<path d="M57.3075 44.1279L58.615 39.8019L67.9853 47.7328L66.6778 54.4621L61.012 48.2135L57.3075 44.1279Z" fill="#272727"/>
<path d="M101.307 31.9963L102.615 27.6704L111.985 35.6013L110.678 42.3305L105.012 36.082L101.307 31.9963Z" fill="#272727"/>
<path d="M67.5628 81.5442L70.3957 75.0553L81.2914 83.2266L78.8943 88.2735L72.7927 84.4282L67.5628 81.5442Z" fill="#272727"/>
<path d="M15.6757 21.895L6.3184 8.66178L20.8983 12.2708L22.6392 14.1957L25.2506 17.0829L33.5198 21.4138L38.9601 27.429L42.0066 40.4216L38.9601 37.0531L18.287 24.7823L15.6757 21.895Z" fill="#272727"/>
<path d="M137.59 24.3679L130.929 14.9726L141.307 17.5349L142.546 18.9015L144.405 20.9514L150.291 24.0262L154.163 28.2968L156.331 37.5213L154.163 35.1297L139.448 26.4177L137.59 24.3679Z" fill="#272727"/>
<path d="M148.032 60.5218L138.578 50.0949L150.669 51.4136L155.877 51.8699L158.688 54.9698L166.609 63.7058L165.535 71.6538L158.636 64.045L156.591 61.7905L148.032 60.5218Z" fill="#272727"/>
<path d="M89.0828 96.7322L81.02 87.84L92.1336 88.0803L96.9278 88.0803L99.3248 90.724L106.08 98.1742L104.555 105.624L98.6711 99.1355L96.9278 97.2129L89.0828 96.7322Z" fill="#272727"/>
<path d="M144.936 149.472L146.249 161.964L137.674 154.164L133.916 150.881L133.526 147.167L132.426 136.701L137.816 131.906L138.774 141.022L139.058 143.723L144.936 149.472Z" fill="#272727"/>
<path d="M89.3542 64.7211L83.0347 54.8675L83.2526 53.1852L85.4318 52.2239L91.0976 58.4725L98.0708 66.1631L106.787 70.0083L110.71 74.3343L111.146 80.5829L101.775 75.5359L91.5334 67.1244L89.3542 64.7211Z" fill="#272727"/>
<path d="M105.499 142.79L97 133.417L105.281 136.301L111.818 137.743L119.227 142.55L121.189 144.713L124.675 148.558L128.598 152.884L124.021 152.644L112.254 150.24L105.499 142.79Z" fill="#272727"/>
<path d="M84.1163 26.8615L78.842 30.745L79.9228 24.456L80.2339 19.1563L82.6468 14.4218L83.8639 13.5256L86.0277 11.9324L88.462 10.14L88.7437 14.1581L88.3086 23.7746L84.1163 26.8615Z" fill="#272727"/>
<path d="M108.423 165.991L112.418 173.842L107.484 170.278L103.449 168.01L99.4053 163.365L98.4833 161.553L96.8441 158.332L95 154.708L97.9524 155.793L105.247 159.75L108.423 165.991Z" fill="#272727"/>
<path d="M141.423 191.357L145.418 199.208L140.484 195.644L136.449 193.376L132.405 188.731L131.483 186.919L129.844 183.698L128 180.074L130.952 181.159L138.247 185.115L141.423 191.357Z" fill="#272727"/>
<path d="M33.2232 122.418L37.6439 124.808L38.0701 133.101L40.3672 146.436L33.7362 142.852L30.3845 136.001L33.2232 122.418Z" fill="#272727"/>
<path d="M68.8925 153.646L61.6467 162.58L63.5912 154.19L64.4429 147.608L68.0053 139.988L69.6774 137.927L72.65 134.261L75.9942 130.138L76.0276 134.707L74.6519 146.545L68.8925 153.646Z" fill="#272727"/>
<path d="M19.9973 75.216L6.92244 52.1443L17.3823 58.8735L20.4331 62.2381L32.2005 66.5641L41.7888 72.332L44.8396 80.5032L47.4545 83.3872L56.1711 93.0004L52.2486 97.3263L47.4545 92.0391L33.508 81.4646L19.9973 75.216Z" fill="#272727"/>
<path d="M158.606 110.17L169.356 134.939L158.497 128.597L155.6 125.136L142.759 121.728L132.728 116.375L130.756 107.392L128.273 104.426L119.995 94.5394L125.386 89.0493L129.939 94.4871L144.109 104.784L158.606 110.17Z" fill="#272727"/>
<path d="M5.22994 162.372L6.97325 148.913L12.639 147.471L19.1765 154.681L29.2005 160.93L51.8636 176.311L61.016 186.405L60.1444 195.057L54.4786 188.808L45.3262 183.521L29.2005 173.427L19.6123 171.504L11.7674 162.852L8.71657 166.217L5.22994 162.372Z" fill="#272727"/>
</svg>
