<svg width="109" height="45" viewBox="0 0 109 45" fill="none" xmlns="http://www.w3.org/2000/svg">
<g clip-path="url(#clip0)">
<path d="M14.87 10.4218C7.2682 10.4218 0.933623 13.6382 0.933623 23.3418C0.933623 31.0293 5.19317 35.8704 15.0663 35.8704C26.6874 35.8704 27.4324 28.2358 27.4324 28.2358H21.8014C21.8014 28.2358 20.5941 32.3467 14.7228 32.3467C9.9408 32.3467 6.50141 29.1251 6.50141 24.6094H28.0213V21.7758C28.0213 17.3084 25.1776 10.4218 14.87 10.4218ZM14.6737 14.0433C19.2257 14.0433 22.3289 16.8244 22.3289 20.9927H6.62595C6.62595 16.5676 10.6765 14.0433 14.6737 14.0433Z" fill="#42C0B2"/>
<path d="M28.0173 1.02539V30.9972C28.0173 32.6985 27.8955 35.0874 27.8955 35.0874H33.2663C33.2663 35.0874 33.4591 33.3717 33.4591 31.8037C33.4591 31.8037 36.1126 35.9438 43.3277 35.9438C50.9254 35.9438 56.0863 30.6831 56.0863 23.1461C56.0863 16.1345 51.3459 10.4952 43.3399 10.4952C35.8429 10.4952 33.5133 14.5327 33.5133 14.5327V1.02539H28.0173ZM41.9536 14.2024C47.1131 14.2024 50.394 18.0213 50.394 23.1461C50.394 28.6415 46.6047 32.2366 41.9904 32.2366C36.4837 32.2366 33.5133 27.9486 33.5133 23.195C33.5133 18.7656 36.1788 14.2024 41.9536 14.2024Z" fill="#42C0B2"/>
<path d="M69.4338 10.4218C57.9975 10.4218 57.264 16.6669 57.264 17.6648H62.9564C62.9564 17.6648 63.2549 14.0188 69.0413 14.0188C72.8014 14.0188 75.715 15.7353 75.715 19.0352V20.2097H69.0413C60.1814 20.2097 55.4975 22.7946 55.4975 28.04C55.4975 33.2023 59.8253 36.0111 65.6737 36.0111C73.6443 36.0111 76.2119 31.6187 76.2119 31.6187C76.2119 33.3658 76.3469 35.0873 76.3469 35.0873H81.4074C81.4074 35.0873 81.2111 32.9534 81.2111 31.5882V19.7876C81.2111 12.0501 74.9531 10.4218 69.4338 10.4218ZM75.715 23.7334V25.2994C75.715 27.342 74.4512 32.4201 67.0109 32.4201C62.9367 32.4201 61.1898 30.3922 61.1898 28.04C61.1898 23.7609 67.0725 23.7334 75.715 23.7334Z" fill="#42C0B2"/>
<path d="M78.1458 11.4016H84.5497L93.7402 29.7644L102.91 11.4016H108.711L92.0086 44.0932H85.9237L90.7433 34.9799L78.1458 11.4016Z" fill="#42C0B2"/>
</g>
<defs>
<clipPath id="clip0">
<rect width="107.849" height="43.1395" fill="white" transform="translate(0.897675 0.989502)"/>
</clipPath>
</defs>
</svg>
