<svg width="122" height="56" viewBox="0 0 122 56" fill="none" xmlns="http://www.w3.org/2000/svg">
<g clip-path="url(#clip0)">
<path d="M5.87275 44.3091C4.25301 44.3091 2.66575 44.0922 1.37538 43.7242L1.57563 39.9771C2.83105 40.4855 4.5828 40.8875 6.20337 40.8875C8.65087 40.8875 10.6341 39.7594 10.6341 37.1034C10.6341 31.9326 0.881104 34.1191 0.881104 26.1805C0.881104 21.959 3.8895 19.0124 9.08141 19.0124C10.403 19.0124 11.7584 19.1926 13.1145 19.4465L12.9151 22.9785C11.6272 22.5426 10.2048 22.2873 8.8828 22.2873C6.1055 22.2873 4.68395 23.7056 4.68395 25.7446C4.68395 30.6591 14.4378 28.8406 14.4378 36.518C14.4357 41.0333 11.1967 44.3091 5.87275 44.3091Z" fill="#42C0B2"/>
<path d="M23.1299 44.1973C22.2051 44.1973 21.5106 44.1629 20.6503 43.9804V51.8566H17.1135V25.8546H20.4525C20.4525 26.8026 20.4188 28.258 20.2535 29.239H20.3201C21.2453 26.9447 23.1299 25.4893 25.6428 25.4893C29.5439 25.4893 31.6925 28.545 31.6925 34.0064C31.6929 40.3787 28.6195 44.1973 23.1299 44.1973ZM24.7176 28.694C22.0723 28.694 20.6503 32.115 20.6503 35.2057V40.7789C21.4115 41.0338 22.2376 41.1429 23.2294 41.1429C26.0392 41.1429 27.9571 39.2497 27.9571 34.3713C27.9571 30.7325 26.9328 28.694 24.7176 28.694Z" fill="#42C0B2"/>
<path d="M43.0377 29.311C39.7653 28.6568 38.1781 31.1689 38.1781 36.5927V43.9437H34.6388V25.8546H38.0132C38.0132 26.8713 37.912 28.4762 37.6809 29.8583H37.7475C38.4758 27.4191 40.1284 25.1606 43.2043 25.4892L43.0377 29.311Z" fill="#42C0B2"/>
<path d="M48.089 23.1614C46.8323 23.1614 45.8068 22.0686 45.8068 20.7205C45.8068 19.3755 46.8323 18.2827 48.089 18.2827C49.3119 18.2827 50.3371 19.3388 50.3371 20.7205C50.3371 22.0686 49.3119 23.1614 48.089 23.1614ZM49.8407 43.9438H46.3043V25.8546H49.8407V43.9438Z" fill="#42C0B2"/>
<path d="M64.3921 43.9437V32.2961C64.3921 30.0403 63.8271 28.731 61.9446 28.731C59.4651 28.731 57.6446 31.6034 57.6446 35.2056V43.9437H54.1074V25.8546H57.4806C57.4806 26.8025 57.4139 28.3653 57.2486 29.3838L57.2828 29.4178C58.2409 27.0909 60.2258 25.4888 63.0027 25.4888C66.7381 25.4888 67.896 28.0742 67.896 31.2775V43.9437H64.3921Z" fill="#42C0B2"/>
<path d="M77.6433 44.2702C74.1382 44.2702 73.0793 42.779 73.0793 38.7408V28.8746H69.9402V25.8546H73.0793V20.1025L76.584 19.0464V25.8546H80.9149V28.8746H76.6186V37.538C76.6186 40.2334 77.1141 40.9595 78.7667 40.9595C79.4937 40.9595 80.2878 40.8504 80.9153 40.6685V43.8718C79.9568 44.0923 78.7334 44.2702 77.6433 44.2702Z" fill="#42C0B2"/>
<path d="M96.9853 38.9332C101.805 32.1037 105.596 24.0804 105.596 18.3184C105.596 15.307 103.636 13.2051 101.081 11.608C101.132 17.8693 99.1614 32.5514 96.9853 38.9332Z" fill="#42C0B2"/>
<path d="M81.1813 55.7616C92.4768 51.6017 108.852 41.9097 120.24 33.2509C121.196 32.527 121.94 31.8543 121.94 30.6777C121.94 28.6319 118.537 25.8899 116.886 24.798C107.925 35.0531 90.0902 50.4192 81.1813 55.7616Z" fill="#42C0B2"/>
<path d="M91.6593 47.0507C98.6244 41.75 108.743 31.7764 112.167 26.3499C112.975 25.0732 113.572 24.3335 113.572 22.9976C113.572 20.8069 111.252 19.203 109.582 18.0862C105.583 28.464 96.5967 41.3864 91.6593 47.0507Z" fill="#42C0B2"/>
<path d="M98.0051 32.3468C98.906 25.7934 98.3764 17.882 97.2263 12.9199C96.6012 10.2177 94.3885 7.16781 92.3411 6.21442C95.0247 14.5994 97.3282 26.5399 98.0051 32.3468Z" fill="#42C0B2"/>
<path d="M96.0214 23.1533C93.9111 16.8743 88.6522 3.78569 80.9157 0.542969C85.9518 6.66218 93.4234 18.8042 96.0214 23.1533Z" fill="#42C0B2"/>
</g>
<defs>
<clipPath id="clip0">
<rect width="121.059" height="55.2186" fill="white" transform="translate(0.881104 0.542969)"/>
</clipPath>
</defs>
</svg>
