<svg width="155" height="199" viewBox="0 0 155 199" fill="none" xmlns="http://www.w3.org/2000/svg">
<path d="M27.9505 7.13569L28.8222 2.80974L36.2313 5.21305L40.3716 9.77932L39.0641 14.1053L39.5 17.4699L35.3596 15.3069L31.2192 10.7406L27.9505 7.13569Z" fill="#0C0C0C"/>
<path d="M51.4853 170.56L54.9719 170.08L59.766 172.483L58.4585 173.925L58.2406 178.01L54.9719 177.77L51.4853 170.56Z" fill="#0C0C0C"/>
<path d="M99.4853 48.1422L102.972 47.6616L107.766 50.0649L106.459 51.5068L106.241 55.5925L102.972 55.3521L99.4853 48.1422Z" fill="#0C0C0C"/>
<path d="M3.48525 37.1136L6.97188 36.6329L11.766 39.0362L10.4585 40.4782L10.2406 44.5638L6.97188 44.3235L3.48525 37.1136Z" fill="#0C0C0C"/>
<path d="M69.3542 169.599L71.9692 166.715L77.4171 168.397L86.5695 169.839L82.647 174.165L77.4171 175.127L69.3542 169.599Z" fill="#0C0C0C"/>
<path d="M-15 95.3221L-12.385 92.4382L-6.93717 94.1205L2.21524 95.5625L-1.70722 99.8884L-6.93717 100.85L-15 95.3221Z" fill="#0C0C0C"/>
<path d="M132.985 165.273L128.191 159.986L135.6 159.505L141.266 159.505L146.278 165.033L147.368 172.483L143.881 173.444L138.215 167.196L132.985 165.273Z" fill="#0C0C0C"/>
<path d="M118.397 65.8279L117.09 64.3859L126.242 65.3472L130.6 67.2698L134.087 71.1151L132.997 76.6427L126.242 72.0764L119.705 69.6731L118.397 65.8279Z" fill="#0C0C0C"/>
<path d="M24.6818 91.9722L27.0788 89.3286L34.27 93.4142L33.8342 105.431L28.3863 96.0579L24.6818 91.9722Z" fill="#0C0C0C"/>
<path d="M56.9331 102.066L58.2406 97.7402L67.6109 105.671L66.3034 112.4L60.6376 106.152L56.9331 102.066Z" fill="#0C0C0C"/>
<path d="M37.3075 34.1279L38.615 29.8019L47.9853 37.7328L46.6778 44.4621L41.012 38.2135L37.3075 34.1279Z" fill="#0C0C0C"/>
<path d="M81.3075 21.9964L82.615 17.6704L91.9853 25.6013L90.6778 32.3306L85.012 26.082L81.3075 21.9964Z" fill="#0C0C0C"/>
<path d="M47.5628 71.5442L50.3957 65.0553L61.2914 73.2265L58.8943 78.2735L52.7927 74.4282L47.5628 71.5442Z" fill="#0C0C0C"/>
<path d="M-4.32432 11.895L-13.6816 -1.33822L0.89835 2.27085L2.63924 4.19569L5.25057 7.08294L13.5198 11.4138L18.9601 17.429L22.0066 30.4216L18.9601 27.0531L-1.71298 14.7823L-4.32432 11.895Z" fill="#0C0C0C"/>
<path d="M117.59 14.3678L110.929 4.97255L121.307 7.5349L122.546 8.90148L124.405 10.9514L130.291 14.0262L134.163 18.2968L136.331 27.5212L134.163 25.1297L119.448 16.4177L117.59 14.3678Z" fill="#0C0C0C"/>
<path d="M128.032 50.5218L118.578 40.0948L130.669 41.4136L135.877 41.8699L138.688 44.9698L146.609 53.7058L145.535 61.6538L138.636 54.045L136.591 51.7905L128.032 50.5218Z" fill="#0C0C0C"/>
<path d="M69.0828 86.7322L61.02 77.84L72.1336 78.0803L76.9278 78.0803L79.3248 80.724L86.0802 88.1742L84.5548 95.6244L78.6711 89.1355L76.9278 87.2129L69.0828 86.7322Z" fill="#0C0C0C"/>
<path d="M124.936 139.472L126.249 151.964L117.674 144.164L113.916 140.881L113.526 137.167L112.426 126.701L117.816 121.906L118.774 131.022L119.058 133.723L124.936 139.472Z" fill="#0C0C0C"/>
<path d="M69.3542 54.7211L63.0347 44.8675L63.2526 43.1852L65.4318 42.2239L71.0976 48.4725L78.0708 56.1631L86.7874 60.0083L90.7099 64.3343L91.1457 70.5829L81.7754 65.5359L71.5334 57.1244L69.3542 54.7211Z" fill="#0C0C0C"/>
<path d="M85.4987 132.79L77 123.417L85.2808 126.301L91.8182 127.743L99.2273 132.55L101.189 134.713L104.675 138.558L108.598 142.884L104.021 142.644L92.254 140.24L85.4987 132.79Z" fill="#0C0C0C"/>
<path d="M64.1163 16.8615L58.842 20.745L59.9228 14.456L60.2339 9.15628L62.6468 4.42178L63.8639 3.52559L66.0277 1.93236L68.462 0.139983L68.7437 4.15808L68.3086 13.7746L64.1163 16.8615Z" fill="#0C0C0C"/>
<path d="M88.4228 155.991L92.4183 163.842L87.484 160.278L83.4493 158.01L79.4053 153.365L78.4833 151.553L76.8441 148.332L75 144.708L77.9524 145.793L85.2469 149.75L88.4228 155.991Z" fill="#0C0C0C"/>
<path d="M121.423 181.357L125.418 189.208L120.484 185.644L116.449 183.376L112.405 178.731L111.483 176.919L109.844 173.698L108 170.074L110.952 171.159L118.247 175.115L121.423 181.357Z" fill="#0C0C0C"/>
<path d="M13.2232 112.418L17.6439 114.808L18.0701 123.101L20.3672 136.436L13.7362 132.852L10.3845 126.001L13.2232 112.418Z" fill="#0C0C0C"/>
<path d="M48.8925 143.646L41.6467 152.58L43.5912 144.19L44.4429 137.608L48.0053 129.988L49.6774 127.927L52.65 124.261L55.9942 120.138L56.0276 124.707L54.6519 136.545L48.8925 143.646Z" fill="#0C0C0C"/>
<path d="M-0.00269688 65.216L-13.0776 42.1443L-2.61767 48.8735L0.433132 52.2381L12.2005 56.5641L21.7888 62.332L24.8396 70.5032L27.4545 73.3872L36.1711 83.0004L32.2486 87.3263L27.4545 82.0391L13.508 71.4646L-0.00269688 65.216Z" fill="#0C0C0C"/>
<path d="M138.606 100.17L149.356 124.939L138.497 118.597L135.6 115.136L122.759 111.728L112.728 106.374L110.756 97.3923L108.273 94.4262L99.995 84.5393L105.386 79.0493L109.939 84.4871L124.109 94.7843L138.606 100.17Z" fill="#0C0C0C"/>
<path d="M-14.7701 152.372L-13.0267 138.913L-7.36097 137.471L-0.82354 144.681L9.20053 150.93L31.8636 166.311L41.016 176.405L40.1444 185.057L34.4786 178.808L25.3262 173.521L9.20052 163.427L-0.387709 161.504L-8.23263 152.852L-11.2834 156.217L-14.7701 152.372Z" fill="#0C0C0C"/>
</svg>
