<svg width="149" height="42" viewBox="0 0 149 42" fill="none" xmlns="http://www.w3.org/2000/svg">
<path d="M1.31134 9.48448C1.31134 9.48448 4.95739 25.8826 5.53929 28.5442C6.21846 31.6509 7.44222 32.7942 10.9705 32.0231L13.2472 21.8564C13.8242 19.3311 14.2113 17.5307 14.5822 14.9618H14.6474C14.9081 17.5559 15.2792 19.3386 15.754 21.8653C15.754 21.8653 16.6808 26.4807 17.1554 28.9049C17.6313 31.3282 18.9555 32.8555 22.4115 32.024L27.8363 9.4862H23.4564L21.6045 19.2304C21.1065 22.0667 20.6547 24.283 20.3064 26.8778H20.2446C19.928 24.3089 19.5253 22.1804 19.0191 19.4169L17.0907 9.4862H12.5273L10.4646 19.1667C9.88023 22.1084 9.33367 24.4838 8.9861 26.9906H8.92315C8.56721 24.6298 8.09313 21.6444 7.57976 18.7968C7.57976 18.7968 6.35427 11.8728 5.92431 9.4862L1.31177 9.48685L1.31134 9.48448ZM43.0641 9.48448V32.0223H47.2341V27.2365V9.4834H43.0641V9.48448ZM101.794 9.48448V26.111C101.794 28.4034 102.187 30.0094 103.028 30.9906C103.763 31.8488 104.973 32.4044 106.423 32.4044C107.656 32.4044 108.869 32.1478 109.441 31.9141L109.387 28.3374C108.962 28.4524 108.472 28.5443 107.803 28.5443C106.383 28.5443 105.906 27.5458 105.906 25.4875V19.1262H109.538V14.8141H105.906V9.48454H101.794L101.794 9.48448ZM33.7451 14.7092C31.1536 14.7092 29.0964 15.5078 27.9751 16.2191L28.7957 19.3033C29.822 18.5932 31.456 18.0053 33.0032 18.0053C35.5649 17.9981 35.9837 19.5951 35.9837 20.6193V20.8615C30.4019 20.8523 26.8761 22.9723 26.8761 27.2935C26.8761 29.9319 28.6709 32.4044 31.7919 32.4044C33.7131 32.4044 35.3198 31.5634 36.2828 30.2159H36.3772C36.3772 30.2159 37.0149 33.1422 40.5279 32.0232C40.3433 30.8053 40.2834 29.5067 40.2834 27.9427V21.9219C40.2834 18.0845 38.7906 14.7093 33.7452 14.7093L33.7451 14.7092ZM58.6895 14.7092C56.0801 14.7092 54.9075 16.1606 54.1965 17.392H54.1347V15.0914H50.1551V32.0234H54.3473V22.0935C54.3473 21.628 54.3958 21.1357 54.5438 20.7075C54.8911 19.7077 55.7386 18.5382 57.0917 18.5382C58.7832 18.5382 59.5747 20.1079 59.5747 22.3731V32.0232H63.7624V21.9732C63.7624 21.5288 63.8179 20.9936 63.937 20.6006C64.2813 19.4634 65.195 18.5381 66.4527 18.5381C68.1676 18.5381 68.9906 20.0804 68.9906 22.7458V32.0232H73.1812V22.0509C73.1812 16.7916 70.7481 14.7093 68.0015 14.7093C66.7851 14.7093 65.825 15.0441 64.957 15.629C64.2274 16.1203 63.5742 16.8185 63.0033 17.7379H62.9415C62.2773 15.9131 60.7189 14.7093 58.6888 14.7093L58.6895 14.7092ZM81.7099 14.7092C79.119 14.7092 77.0622 15.5078 75.9399 16.2191L76.7617 19.3033C77.7869 18.5932 79.422 18.0053 80.9684 18.0053C83.5283 17.9981 83.948 19.5951 83.948 20.6193V20.8615C78.3671 20.8523 74.8409 22.9723 74.8409 27.2935C74.8409 29.9319 76.6366 32.4044 79.7592 32.4044C81.6789 32.4044 83.2862 31.5634 84.2473 30.2159H84.3422C84.3422 30.2159 84.9797 33.1422 88.4933 32.0232C88.3084 30.8053 88.2491 29.5067 88.2491 27.9427V21.9219C88.2491 18.0845 86.7559 14.7093 81.7099 14.7093L81.7099 14.7092ZM99.1189 14.7092C97.5136 14.7092 95.6873 15.8465 94.9207 18.2846H94.8036V15.0912H91.0298V32.0231H95.3318V23.3529C95.3318 22.8852 95.3577 22.4774 95.4251 22.1034C95.7433 20.2872 97.009 19.1262 98.8255 19.1262C99.3242 19.1262 99.6811 19.1855 100.067 19.2467V14.814C99.7434 14.7422 99.522 14.7091 99.1192 14.7091L99.1189 14.7092ZM36.1183 23.862V25.9742C36.1183 26.2867 36.0935 26.6091 36.0147 26.8909C35.692 28.0641 34.5847 29.0554 33.2005 29.0554C32.0465 29.0554 31.1298 28.3366 31.1298 26.8159C31.1298 24.4898 33.4627 23.8469 36.1184 23.862H36.1183ZM84.0831 23.862V25.9742C84.0831 26.2867 84.0578 26.6091 83.9795 26.8909C83.6568 28.0641 82.5499 29.0554 81.1657 29.0554C80.0115 29.0554 79.0946 28.3366 79.0946 26.8159C79.0946 24.4898 81.4275 23.8469 84.0833 23.862H84.0831Z" fill="#42C0B2"/>
<path d="M132.084 1.33362C130.738 1.33362 129.668 2.15873 129.668 3.16322L130.485 13.3239C130.576 13.936 131.259 14.4082 132.085 14.4082C132.912 14.4071 133.593 13.9353 133.685 13.3239L134.507 3.16322C134.507 2.15882 133.434 1.3337 132.086 1.3337L132.084 1.33362ZM118.761 9.48402C118.062 9.50222 117.268 10.083 116.763 11.044C116.088 12.3237 116.207 13.7538 116.998 14.2555L125.423 18.5618C125.949 18.7766 126.664 18.3664 127.078 17.5832C127.078 17.5831 127.078 17.5828 127.078 17.5827C127.494 16.7956 127.461 15.9106 127.024 15.518L119.414 9.66025C119.217 9.53462 118.994 9.47809 118.762 9.48415L118.761 9.48402ZM145.407 9.48402C145.174 9.47796 144.952 9.53449 144.755 9.66012L137.145 15.5179C136.71 15.9105 136.677 16.7955 137.091 17.5826L137.091 17.583C137.507 18.3663 138.219 18.7765 138.746 18.5617L147.175 14.2556C147.968 13.7538 148.082 12.3238 147.411 11.0441C146.904 10.0831 146.108 9.50232 145.41 9.48411L145.407 9.48402ZM125.737 22.8896C125.628 22.888 125.523 22.9064 125.424 22.9473L116.999 27.2484C116.209 27.7523 116.089 29.183 116.764 30.464C117.438 31.7412 118.625 32.3483 119.415 31.8475L127.025 25.9942C127.463 25.5969 127.495 24.7121 127.079 23.9258L127.082 23.9275C126.746 23.287 126.21 22.8965 125.737 22.8895L125.737 22.8896ZM138.434 22.8896C137.963 22.8966 137.428 23.2871 137.09 23.9276L137.093 23.9259C136.679 24.7122 136.711 25.597 137.147 25.9943L144.757 31.8476C145.546 32.3485 146.734 31.7413 147.41 30.4641C148.081 29.183 147.968 27.7524 147.174 27.2486L138.748 22.9474C138.649 22.9066 138.543 22.8881 138.435 22.8897L138.434 22.8896ZM132.083 27.1006C131.258 27.1016 130.577 27.5718 130.487 28.1824L129.669 38.3426C129.669 39.3488 130.739 40.1722 132.085 40.1722C133.434 40.1722 134.506 39.3488 134.506 38.3426L133.687 28.1824C133.594 27.5718 132.914 27.1017 132.086 27.1006H132.083H132.083Z" fill="#42C0B2"/>
</svg>
