<svg width="204" height="21" viewBox="0 0 204 21" fill="none" xmlns="http://www.w3.org/2000/svg">
<g clip-path="url(#clip0)">
<path d="M34.4613 0.112793H27.3451V1.04734H30.403C30.4324 1.13444 30.4612 1.30991 30.4612 1.45613C30.4612 1.68945 30.403 2.04038 30.1968 2.56615C28.8436 6.18292 26.3945 11.7292 24.4613 16.4929L18.9044 2.56615C18.6989 2.04038 18.6113 1.71869 18.6113 1.45613C18.6113 1.25205 18.6695 1.04734 18.6695 1.04734H21.0514V0.112793H12.701V1.04734H14.3474C14.759 1.04734 15.0829 1.25205 15.3479 1.92404L16.8452 5.59231L12.3483 16.7599L6.7024 2.56678C6.49692 2.04102 6.40794 1.71933 6.40794 1.45677C6.40794 1.25269 6.46747 1.04798 6.46747 1.04798H8.84937V0.112793H0.497681V1.04734H2.14472C2.55632 1.04734 2.88022 1.25205 3.14523 1.92404L10.8491 20.7327H11.7613L17.4193 6.99859L23.0236 20.7327H23.9646C24.3468 19.856 24.6995 18.9507 25.0823 18.0454L31.6685 1.92404C31.9341 1.25205 32.2868 1.04734 32.669 1.04734H34.4633V0.112793H34.4613Z" fill="#42C0B2"/>
<path d="M51.8746 18.7466C44.9056 1.83566 47.3752 7.79454 44.14 -0.0626831H43.199C42.8169 0.843259 42.4642 1.74857 42.082 2.62463L35.4951 18.7466C35.2308 19.4186 34.9069 19.6226 34.4946 19.6226H32.8476V20.5572H39.935V19.6226H36.7882C36.7588 19.5635 36.7293 19.3601 36.7293 19.2139C36.7293 19.0384 36.7588 18.8051 36.8765 18.4548L37.171 17.6372C37.6408 16.4662 38.2125 15.0281 38.8206 13.4902H46.4636L48.3456 18.1045C48.5223 18.6302 48.61 18.9519 48.61 19.2145C48.61 19.4478 48.5517 19.6233 48.5517 19.6233H46.1692V20.5578H54.3154V19.6233H52.8738C52.4622 19.6226 52.1396 19.4186 51.8746 18.7466ZM39.1899 12.5544C40.3921 9.51106 41.6819 6.22487 42.5954 3.90058C43.7546 6.79705 44.928 9.67762 46.0815 12.5544H39.1899Z" fill="#42C0B2"/>
<path d="M65.1412 0.112793H64.028H63.0998H55.3652V4.78555H56.2479L57.13 1.22281C57.3067 1.13444 57.63 1.04734 58.1305 1.04734H63.1005V18.6004C63.1005 19.0969 63.0115 19.4466 62.9238 19.622H59.8358V20.5566H69.3052V19.622H66.2172C66.1282 19.4466 66.07 19.0963 66.07 18.6004V1.04734H71.0399C71.5097 1.04734 71.8631 1.13444 72.0391 1.22281L72.8924 4.78555H73.804V0.112793H66.0706H65.1412Z" fill="#42C0B2"/>
<path d="M90.7614 19.7981H88.7028C84.2034 19.4186 82.3214 16.4973 82.3214 10.3356C82.3214 4.17331 84.2034 1.25268 88.7028 0.872504H90.7614C94.7014 0.930992 96.5251 4.40663 96.9367 6.77225H97.9654V0.112784H97.0539L96.2601 2.71236C96.2601 2.71236 94.6425 -0.0626831 90.7614 -0.0626831H88.7028C82.6748 -0.0626831 79.1752 4.37675 79.1752 10.3356C79.1752 16.2932 82.6748 20.7327 88.7028 20.7327H90.7614C94.6432 20.7327 96.319 17.9869 96.319 17.9869L97.1127 20.5572H98.0249V13.8984H96.995C96.5834 16.2932 94.7014 19.7682 90.7614 19.7981Z" fill="#42C0B2"/>
<path d="M119.158 1.04734H121.951C122.039 1.22281 122.128 1.57311 122.128 2.06899V9.72086H118.439H117.511H110.865V2.06899C110.865 1.57247 110.953 1.22281 111.041 1.04734H113.835V0.112793H104.925V1.04734H107.718C107.806 1.22281 107.895 1.57311 107.895 2.06899V18.6004C107.895 19.0969 107.806 19.4466 107.718 19.622H104.925V20.5566H113.835V19.622H111.041C110.953 19.4466 110.865 19.0963 110.865 18.6004V10.6561H117.511H118.439H122.128V18.6004C122.128 19.0969 122.039 19.4466 121.951 19.622H119.158V20.5566H128.039V19.622H125.245C125.157 19.4466 125.069 19.0963 125.069 18.6004V2.06899C125.069 1.57247 125.157 1.22281 125.245 1.04734H128.039V0.112793H119.158V1.04734Z" fill="#42C0B2"/>
<path d="M146.402 9.6045H139.727V1.04732H144.844C147.872 1.04732 148.549 2.71234 148.549 4.69842C148.549 6.80084 147.784 7.70615 147.078 8.32028L148.108 8.34889C149.961 7.70679 151.489 6.47979 151.489 4.23115C151.489 2.77083 150.843 0.113403 145.461 0.113403H139.727H139.396H133.816V1.04795H136.61C136.697 1.22342 136.786 1.57372 136.786 2.0696V18.6003C136.786 19.0969 136.697 19.4465 136.61 19.622H133.816V20.5565H139.396H139.727H145.843C151.99 20.5565 152.96 16.9938 152.96 15.0656C152.96 13.0801 151.96 9.6045 146.402 9.6045ZM145.461 19.6226H139.727V10.539H145.609C148.961 10.539 149.784 12.2327 149.784 15.0363C149.785 17.7236 149.02 19.6226 145.461 19.6226Z" fill="#42C0B2"/>
<path d="M169.575 -0.0626831H167.517C162.018 -0.0626831 158.401 4.43588 158.401 10.3356C158.401 16.2347 162.017 20.7327 167.517 20.7327H169.575C175.015 20.7327 178.691 16.2341 178.691 10.3356C178.691 4.43588 175.015 -0.0626831 169.575 -0.0626831ZM169.575 19.7981H167.517C163.253 19.4186 161.547 16.4973 161.547 10.3356C161.547 4.17331 163.253 1.25268 167.517 0.872504L169.575 0.859788V0.872504C173.78 1.25268 175.516 4.17331 175.516 10.3356C175.516 16.4967 173.78 19.4186 169.575 19.7981Z" fill="#42C0B2"/>
<path d="M201.636 19.6227C201.224 19.6227 200.842 19.301 200.431 18.6881L194.122 9.53777L199.99 2.158C200.637 1.34042 201.284 1.04798 201.695 1.04798H203.195V0.112793H196.255V1.04734H199.138C199.138 1.45613 198.903 1.92404 198.638 2.27434L193.536 8.68841L189.315 2.56678C189.051 2.158 188.844 1.45677 188.844 1.04798H191.491V0.112793H182.581V1.04734H184.286C184.668 1.04734 184.963 1.33979 185.404 1.92404L191.657 11.0261L185.786 18.512C185.139 19.3595 184.522 19.622 184.11 19.622H182.375V20.5566H189.315V19.622H186.697C186.697 19.2132 186.903 18.7746 187.198 18.395L192.238 11.871L196.519 18.1032C196.784 18.512 197.02 19.1261 197.02 19.622H194.255V20.5566H203.253V19.622L201.636 19.6227Z" fill="#42C0B2"/>
</g>
<defs>
<clipPath id="clip0">
<rect width="202.756" height="20.707" fill="white" transform="translate(0.497681 0.112793)"/>
</clipPath>
</defs>
</svg>
