<svg width="683" height="593" viewBox="0 0 683 593" fill="none" xmlns="http://www.w3.org/2000/svg">
<path fill-rule="evenodd" clip-rule="evenodd" d="M602.116 69.9775L604.864 68.1287L605.33 68.7431L603.772 72.1604L602.116 69.9775ZM597.404 73.1467L594.655 74.9954L599.542 81.436L601.1 78.0187L597.404 73.1467ZM580.486 71.1706L583.313 69.4252L584.558 71.0654L582.999 74.4828L580.486 71.1706ZM587.195 80.0134L589.944 78.1647L596.87 87.2942L595.724 89.8083L600.524 92.1104L605.099 98.1392L602.54 100.239L587.195 80.0134ZM575.64 74.1628L573.217 75.6589L578.992 83.2702L580.328 80.341L575.64 74.1628ZM582.484 83.1827L580.128 84.7674L595.961 105.637L598.154 103.837L582.484 83.1827ZM307.866 387.951L310.041 390.819C309.142 391.566 308.292 392.273 307.496 392.935L306.102 391.099C306.672 390.112 307.261 389.058 307.866 387.951ZM293.134 353.684C292.262 354.296 291.347 354.922 290.402 355.554L280.803 342.903C281.411 341.893 282.024 340.874 282.638 339.85L293.134 353.684ZM297.681 350.298L285.776 334.606C286.387 333.582 286.997 332.56 287.602 331.542L300.172 348.109C299.514 348.764 298.671 349.501 297.681 350.298ZM289.835 319.634C289.007 320.337 288.163 321.051 287.306 321.772L272.29 301.98C273.111 301.238 273.932 300.497 274.754 299.756L289.835 319.634ZM278.985 295.953C279.809 295.214 280.633 294.477 281.457 293.741L296.643 313.756C295.843 314.461 295.009 315.189 294.147 315.937L278.985 295.953ZM288.186 287.759C287.359 288.491 286.532 289.224 285.704 289.959L341.989 364.145C342.831 363.433 343.675 362.72 344.518 362.006L288.186 287.759ZM348.846 358.331C349.689 357.614 350.529 356.897 351.366 356.182L294.943 281.813C294.112 282.54 293.282 283.269 292.45 283.999L348.846 358.331ZM299.225 278.078L355.678 352.485C356.521 351.76 357.358 351.039 358.187 350.321L301.728 275.906C300.895 276.628 300.06 277.351 299.225 278.078ZM306.03 272.197C306.87 271.476 307.709 270.757 308.546 270.042L364.971 344.411C364.151 345.132 363.319 345.86 362.477 346.596L306.03 272.197ZM315.399 264.223C314.558 264.933 313.715 265.645 312.87 266.361L369.229 340.644C370.071 339.894 370.896 339.156 371.701 338.431L315.399 264.223ZM319.747 260.575C320.598 259.865 321.446 259.159 322.291 258.457L378.343 332.335C377.565 333.066 376.753 333.821 375.91 334.599L319.747 260.575ZM329.227 252.747C328.376 253.441 327.523 254.14 326.666 254.844L382.456 328.376C383.277 327.561 384.031 326.795 384.709 326.084L384.712 326.085L384.812 326.01L329.227 252.747ZM333.633 249.174C334.496 248.478 335.356 247.788 336.212 247.103L392.018 320.657C391.104 321.329 390.213 321.986 389.356 322.62L333.633 249.174ZM342.881 241.824C342.141 242.403 341.398 242.987 340.652 243.575L396.59 317.303C397.349 316.748 398.113 316.189 398.878 315.63L342.881 241.824ZM347.359 238.346C348.239 237.668 349.114 236.998 349.984 236.335L406.127 310.333C405.255 310.972 404.362 311.624 403.457 312.285L347.359 238.346ZM413.36 305.015C412.536 305.627 411.644 306.285 410.7 306.98L354.509 232.919C355.4 232.253 356.285 231.596 357.164 230.947L413.36 305.015ZM417.88 301.593L361.745 227.606C362.649 226.954 363.547 226.313 364.437 225.682L420.365 299.397C419.81 299.927 419.264 300.429 418.728 300.897C418.53 301.071 418.244 301.305 417.88 301.593ZM371.826 220.571C370.922 221.179 370.01 221.8 369.088 222.434L424.354 295.276C425.097 294.457 425.842 293.609 426.583 292.742L371.826 220.571ZM376.568 217.442C377.513 216.832 378.446 216.237 379.367 215.659L420.915 270.421C421.058 270.724 421.269 271.007 421.558 271.269L432.371 285.52C431.692 286.421 430.993 287.329 430.279 288.234L376.568 217.442ZM387.119 211.025C386.173 211.56 385.211 212.116 384.233 212.693L423.401 264.318C424.097 263.522 424.887 262.712 425.721 261.904L387.119 211.025ZM391.998 208.077C392.895 207.511 393.836 206.917 394.805 206.305L432.384 255.836C431.642 256.53 430.802 257.279 429.922 258.062L391.998 208.077ZM402.406 201.473C401.479 202.066 400.542 202.663 399.608 203.257L436.726 252.18L439.278 250.072L402.406 201.473ZM407.191 198.4C408.162 197.772 409.095 197.167 409.972 196.594L446.205 244.351L443.653 246.459L407.191 198.4ZM453.133 238.63L450.58 240.738L414.704 193.451C415.979 192.578 416.756 192.004 416.821 191.862C416.865 191.764 417.036 191.61 417.293 191.393L453.133 238.63ZM457.42 234.901L421.152 187.1C421.745 186.091 422.259 184.901 422.579 183.508L459.814 232.586C458.914 233.451 458.101 234.239 457.42 234.901ZM425.218 177.608L422.89 179.374C422.714 176.57 421.789 173.206 419.649 169.191C417.872 165.857 416.77 163.909 416.154 162.951L410.421 146.2L429.49 164.081C431.912 165.971 435.329 168.046 437.707 168.132L435.004 170.183L473.117 220.418C472.254 221.179 471.425 221.913 470.634 222.616L432.369 172.182L427.853 175.609L466.394 226.408C465.578 227.149 464.757 227.907 463.951 228.66L425.218 177.608ZM418.47 169.718L416.154 162.951C414.387 160.198 416.636 165.598 418.47 169.718ZM439.692 160.237C440.761 163.978 440.664 166.138 439.876 167.225L477.39 216.67C478.201 215.963 479.035 215.238 479.892 214.496L442.155 164.758L446.671 161.331L484.198 210.793C485.022 210.088 485.863 209.372 486.72 208.646L449.306 159.332L451.611 157.583C451.552 157.435 451.493 157.284 451.434 157.131C442.894 134.688 429.64 127.385 424.08 126.539C427.838 132.709 436.22 148.087 439.692 160.237ZM500.801 212.354C500.063 213.241 499.337 214.118 498.637 214.974L502.135 219.584C503.012 219.003 503.936 218.393 504.901 217.758L500.801 212.354ZM504.524 207.881C505.26 206.99 505.982 206.107 506.674 205.244L512.432 212.833C511.485 213.447 510.558 214.051 509.653 214.642L504.524 207.881ZM511.77 198.166C511.355 198.896 510.835 199.699 510.235 200.558L517.208 209.749C518.129 209.157 519.061 208.56 520.002 207.96L511.742 197.073C511.757 197.413 511.766 197.777 511.77 198.166ZM508.397 192.664L472.708 145.625L470.97 148.806L504.967 193.614L505.178 193.446C505.952 193.317 506.667 193.121 507.318 192.942C507.7 192.838 508.06 192.739 508.397 192.664ZM475.688 140.173L524.807 204.913C525.741 204.324 526.679 203.736 527.619 203.149L477.91 137.63L482.426 134.204L532.46 200.149C533.409 199.566 534.356 198.988 535.297 198.417L485.061 132.205L489.577 128.778L540.187 195.483C541.157 194.909 542.116 194.346 543.059 193.798L492.212 126.779L496.728 123.353L504.993 134.246C505.449 133.017 505.82 131.678 506.116 130.254L499.363 121.354L503.879 117.927L507.039 122.092C507.108 120.314 507.111 118.488 507.059 116.646L506.514 115.928L507.022 115.543C506.644 105.961 504.876 96.1021 503.48 90.3501L486.724 127.092L483.643 125.615L475.688 140.173ZM511.593 128.094C512.351 127.312 513.129 126.512 513.926 125.697L559.167 185.326C558.222 185.726 557.19 186.198 556.083 186.733L511.593 128.094ZM563.714 176.469L562.156 179.886L517.944 121.613C518.718 120.832 519.503 120.043 520.299 119.246L563.714 176.469ZM566.386 170.611L567.944 167.193L526.736 112.88C525.938 113.66 525.144 114.439 524.357 115.215L566.386 170.611ZM572.174 157.918L570.615 161.335L530.838 108.907C531.639 108.139 532.442 107.372 533.246 106.609L572.174 157.918ZM574.845 152.059L576.404 148.642L568.8 138.621C567.729 138.888 566.734 138.976 565.859 138.83C565.343 138.744 564.904 138.622 564.534 138.468L574.845 152.059ZM580.634 139.366L579.075 142.784L574.149 136.291C575.083 135.752 576.025 135.153 576.957 134.52L580.634 139.366ZM583.305 133.508L584.864 130.091L584.021 128.98C583.244 129.668 582.394 130.392 581.496 131.123L583.305 133.508ZM584.631 114.934L582.073 117.033L557.933 85.2157C558.872 84.528 559.776 83.8914 560.64 83.3117L584.631 114.934ZM589.017 111.335L565.544 80.3966L568.371 78.6511L591.576 109.236L589.017 111.335ZM550.878 90.7675C551.748 90.0438 552.603 89.3448 553.44 88.6736L577.687 120.632L575.129 122.731L550.878 90.7675ZM546.555 94.4495C545.734 95.1644 544.903 95.8953 544.066 96.6399L568.184 128.429L570.743 126.33L546.555 94.4495ZM537.4 102.706C538.217 101.947 539.032 101.195 539.842 100.453L564.177 132.527C563.381 133.746 562.782 135.081 562.827 136.218L537.4 102.706ZM507.616 132.232C506.811 133.077 506.041 133.889 505.31 134.664L548.028 190.967C549.033 190.407 550.012 189.87 550.96 189.361L507.616 132.232ZM500.549 197.171L467.991 154.259L466.62 156.768C466.57 157.083 466.511 157.391 466.445 157.693L497.983 199.261C498.829 198.569 499.684 197.872 500.549 197.171ZM463.6 163.321L493.605 202.869C492.745 203.583 491.897 204.289 491.061 204.988L460.742 165.026C461.773 164.762 462.746 164.178 463.6 163.321ZM493.074 222.492C493.575 221.634 494.239 220.655 495.022 219.588L497.406 222.73C496.324 223.453 495.398 224.074 494.654 224.574L493.074 222.492ZM433.601 272.291C432.309 272.416 430.955 272.505 429.645 272.548L435.849 280.725C436.551 279.716 437.206 278.746 437.804 277.83L433.601 272.291ZM440.915 272.552L439.843 271.138C440.072 271.046 440.259 270.951 440.398 270.853C441.798 269.866 441.83 270.658 440.915 272.552ZM325.169 351.354L337.648 367.803C336.799 368.517 335.954 369.227 335.113 369.932L323.694 354.881C324.241 353.599 324.737 352.415 325.169 351.354ZM297.469 314.845L322.843 348.289C321.965 348.786 320.983 349.334 319.927 349.917L295.657 317.929C296.282 316.867 296.888 315.837 297.469 314.845ZM292.545 323.206C291.949 324.215 291.342 325.241 290.726 326.28L311.931 354.228C312.922 353.706 313.914 353.178 314.889 352.656L292.545 323.206ZM321.09 360.829C320.593 361.942 320.075 363.089 319.541 364.259L328.221 375.7C328.733 375.273 329.248 374.843 329.765 374.41L330.762 373.577L321.09 360.829ZM282.951 325.412L268.074 305.803C267.255 306.547 266.436 307.292 265.619 308.038L280.403 327.524C281.257 326.818 282.107 326.114 282.951 325.412ZM316.84 370.078L323.863 379.334C323 380.052 322.152 380.758 321.318 381.452L315.239 373.44C315.778 372.319 316.313 371.196 316.84 370.078ZM301.844 350.313L306.82 356.872C305.768 357.405 304.756 357.91 303.807 358.372L300.655 354.218C301.12 352.905 301.524 351.557 301.844 350.313ZM297.863 359.916C297.711 360.113 297.557 360.294 297.402 360.455C296.676 361.211 297.182 361.231 298.496 360.752L297.863 359.916ZM312.447 379.139C311.891 380.252 311.336 381.349 310.786 382.421L314.407 387.194L315.731 386.094L316.954 385.079L312.447 379.139ZM261.417 311.879C260.6 312.627 259.784 313.376 258.969 314.125L273.459 333.223C274.31 332.529 275.165 331.83 276.021 331.129L261.417 311.879ZM285.633 358.648L277.647 348.122C277.021 349.153 276.404 350.167 275.799 351.158L282.811 360.399C283.755 359.822 284.699 359.237 285.633 358.648ZM254.78 317.983L269.059 336.803C268.19 337.508 267.331 338.202 266.487 338.885L252.341 320.239C253.153 319.487 253.966 318.735 254.78 317.983ZM303.141 396.574L302.887 396.24C302.469 396.833 302.077 397.35 301.715 397.781C301.25 398.178 300.884 398.496 300.623 398.728L300.699 398.827C301.004 398.575 301.344 398.223 301.715 397.781C302.118 397.437 302.595 397.033 303.141 396.574ZM277.908 363.317L272.614 356.339C271.966 357.385 271.34 358.389 270.742 359.343L275.009 364.967C275.948 364.442 276.919 363.89 277.908 363.317ZM262.072 342.445L248.164 324.114C247.352 324.869 246.541 325.625 245.732 326.379L259.493 344.517C260.323 343.851 261.184 343.159 262.072 342.445ZM239.142 332.545C239.949 331.787 240.758 331.029 241.568 330.27L255.067 348.063C254.124 348.817 253.258 349.509 252.483 350.128L239.142 332.545ZM265.544 367.342C266.093 366.556 266.748 365.579 267.492 364.439L269.947 367.674C268.798 368.255 267.768 368.747 266.897 369.126L265.544 367.342ZM248.066 353.685L234.99 336.451C208.816 361.128 184.966 384.588 167.649 402.111L158.658 410.51C149.867 421.469 131.549 444.788 128.601 450.388C125.654 455.988 140.24 443.092 147.902 435.944C154.435 430.189 168.019 419.106 170.086 420.819C172.153 422.532 168.75 434.978 166.79 440.987C181.254 424.951 207.944 396.422 221.004 382.462L221.035 382.43L221.052 382.411L221.054 382.409C224.8 378.405 227.416 375.609 228.287 374.664C230.16 372.632 231.902 370.584 233.664 368.512L233.665 368.511C237.738 363.723 241.915 358.812 248.066 353.685Z" fill="#5C65B3"/>
<path fill-rule="evenodd" clip-rule="evenodd" d="M243.912 205.495C236.842 212.713 215.339 230.085 203.864 239.356C200.848 241.792 198.525 243.669 197.339 244.655C201.519 239.812 212.821 215.198 211.72 216.028C210.549 216.911 193.04 226.131 195.223 223.916C197.405 221.701 199.239 212.921 197.65 216.111C196.06 219.302 173.982 231.682 176.787 228.429C179.03 225.827 191.115 206.055 196.877 196.495C189.96 202.631 175.847 213.604 170.307 217.911C169.568 218.485 168.981 218.941 168.585 219.251C164.756 222.245 162.247 225.117 159.804 227.913C158.811 229.049 157.829 230.173 156.774 231.287C156.282 231.807 154.799 233.35 152.676 235.559C145.328 243.207 130.309 258.836 122.167 267.625C123.298 264.306 125.278 257.426 124.144 256.461C123.01 255.495 115.392 261.543 111.725 264.687C107.422 268.596 99.2346 275.642 100.911 272.557C102.588 269.472 112.923 256.672 117.881 250.657L122.931 246.064C152.59 216.842 216.287 157.516 247.037 141.177C252.188 138.039 262.535 131.666 262.721 131.27C262.752 131.204 262.889 131.093 263.091 130.928C264.405 129.857 268.489 126.527 264.458 118.715C263.497 116.851 262.9 115.763 262.565 115.227L259.509 105.891L269.955 115.952C272.616 118.086 277.479 120.661 275.644 113.895C273.808 107.129 269.271 98.5361 267.232 95.0852C270.31 95.5957 277.609 99.7451 282.181 112.259C284.695 119.142 289.704 117.414 290.608 112.17L300.283 95.0136L301.981 95.8562L311.549 75.597C312.859 81.3295 314.734 94.3759 311.747 100.701C319.966 92.1738 338.294 74.2274 345.85 70.657L357.544 63.6504L352.644 74.0271L368.561 63.6265L362.727 75.9797L369.52 79.3498L345.964 98.1585C344.62 99.5247 342.705 102.397 345.795 102.954C348.886 103.511 354.724 98.8447 357.256 96.4416L342.088 128.56C332.452 132.318 304.481 150.766 304.481 150.766C303.248 150.155 306.508 146.353 309.868 142.433C312.058 139.878 314.292 137.273 315.349 135.471C315.362 131.905 314.46 132.139 312.918 132.54C312.556 132.635 312.157 132.738 311.727 132.804C302.623 139.875 295.119 146.311 290.592 150.253C288.395 152.167 286.017 154.415 284.71 155.652C283.853 156.462 283.456 156.838 283.87 156.399L271.201 166.581C270.692 167.06 270.074 167.595 269.419 168.163C266.432 170.75 262.678 174.002 265.032 175.57C265.789 176.555 273.976 176.116 275.216 175.267C278.333 173.132 269.244 186.43 262.972 191.774C262.066 192.546 257.915 195.493 253.458 198.658C250.004 201.111 246.366 203.694 243.914 205.495L243.912 205.495ZM263.8 118.998C262.813 116.699 261.605 113.686 262.565 115.227L263.8 118.998ZM196.632 245.328C196.252 245.583 196.534 245.324 197.339 244.655C197.072 244.964 196.835 245.192 196.632 245.328Z" fill="#5C65B3"/>
<path fill-rule="evenodd" clip-rule="evenodd" d="M671.255 83.904L676.214 80.7971L677.912 83.2895L675.06 89.4896L671.255 83.904ZM662.754 89.23L657.795 92.3369L667.321 106.318L670.172 100.118L662.754 89.23ZM681.138 116.213L682.84 118.711L678.204 122.292L670.648 111.202L681.138 116.213ZM635.144 87.278L640.234 84.3646L645.126 91.5438L642.274 97.7438L635.144 87.278ZM644.336 100.77L649.295 97.6629L670.257 128.431L665.622 132.012L644.336 100.77ZM648.961 79.37L650.014 80.9153L651.354 78L648.961 79.37ZM626.417 92.2726L621.376 95.158L621.324 95.1814L653.039 141.732L657.675 138.151L626.417 92.2726ZM607.8 103.52C609.465 102.315 611.07 101.199 612.602 100.183L645.092 147.87L640.456 151.451L607.8 103.52ZM653.547 160.281L653.491 160.198C652.263 161.328 650.742 162.647 649.029 164.034L650.696 166.481L653.547 160.281ZM599.806 109.59C598.311 110.773 596.786 112.002 595.238 113.27L627.874 161.171L632.509 157.59L599.806 109.59ZM640.931 169.952C639.265 171.034 637.565 172.047 635.883 172.927L642.957 183.309L645.808 177.109L640.931 169.952ZM583.071 123.6C584.562 122.295 586.047 121.009 587.52 119.746L620.765 168.541C619.097 171.682 618.968 175.009 624.242 175.976C624.774 176.074 625.335 176.116 625.921 176.108L638.069 193.938L635.217 200.138L583.071 123.6ZM575.516 130.314C574.055 131.63 572.597 132.955 571.144 134.283L627.478 216.966L630.329 210.766L575.516 130.314ZM559.393 145.222C560.812 143.879 562.251 142.525 563.704 141.166L622.59 227.595L619.738 233.795L559.393 145.222ZM527.49 116.2L525.046 121.514L537.869 140.336C537.61 136.789 537.212 133.225 536.727 129.758L527.49 116.2ZM552.047 152.243C550.803 153.443 549.585 154.624 548.394 155.784L608.244 243.629C609.883 242.86 611.435 242.161 612.887 241.541L552.047 152.243ZM517.307 138.343L520.158 132.143L537.722 157.923C537.386 160.805 536.859 163.505 536.104 165.932L517.307 138.343ZM536.926 167.139C538.248 165.807 539.654 164.399 541.133 162.929L599.175 248.12C597.484 248.993 595.743 249.908 593.964 250.857L536.926 167.139ZM512.419 148.971L509.567 155.171L580 258.549C581.72 257.577 583.429 256.619 585.12 255.68L512.419 148.971ZM270.326 508.725L264.013 499.459C265.01 497.482 266.008 495.471 266.995 493.451L274.941 505.113C273.359 506.352 271.818 507.558 270.326 508.725ZM274.846 476.785C273.935 478.793 272.98 480.869 271.993 482.983L282.846 498.913C284.358 497.725 285.896 496.516 287.453 495.29L274.846 476.785ZM279.609 465.974C280.675 463.467 281.575 461.267 282.264 459.485L299.94 485.429C298.399 486.651 296.865 487.865 295.343 489.068L279.609 465.974ZM223.9 373.822L280.25 456.53C278.833 457.29 277.05 458.22 275.031 459.254L240.717 408.889C241.472 407.63 242.196 406.422 242.883 405.274C241.955 406.073 240.977 406.906 239.953 407.768L219.399 377.6C220.9 376.337 222.4 375.077 223.9 373.822ZM307.808 479.175L231.635 367.372C233.145 366.12 234.653 364.871 236.159 363.627L312.39 475.515C310.864 476.737 309.335 477.957 307.808 479.175ZM320.228 469.217C321.759 467.982 323.28 466.751 324.79 465.527L248.484 353.529C246.97 354.759 245.454 355.995 243.935 357.237L320.228 469.217ZM256.305 347.205L332.587 459.168C334.12 457.91 335.632 456.664 337.119 455.435L260.881 343.537C259.359 344.752 257.834 345.975 256.305 347.205ZM268.753 337.288C270.294 336.072 271.83 334.865 273.361 333.666L349.336 445.179C347.887 446.417 346.39 447.687 344.852 448.982L268.753 337.288ZM285.935 323.933C284.393 325.112 282.845 326.302 281.29 327.501L356.956 438.56C358.512 437.182 359.978 435.863 361.342 434.613L285.935 323.933ZM293.931 317.868C295.502 316.687 297.064 315.518 298.618 314.362L373.705 424.57C372.003 425.749 370.391 426.87 368.906 427.912L293.931 317.868ZM311.433 304.982C309.864 306.111 308.284 307.255 306.695 308.413L381.961 418.885C383.551 417.795 385.166 416.69 386.786 415.582L311.433 304.982ZM319.607 299.176C321.22 298.045 322.82 296.932 324.408 295.838L399.887 406.622C398.33 407.689 396.714 408.795 395.061 409.925L319.607 299.176ZM408.14 400.933L332.703 290.211C334.347 289.114 335.975 288.041 337.585 286.991L412.92 397.564C411.643 398.483 410.02 399.625 408.14 400.933ZM420.589 391.017C421.961 389.669 423.352 388.229 424.742 386.728L351.033 278.542C349.392 279.53 347.728 280.55 346.041 281.6L420.589 391.017ZM435.37 374.139C434.142 375.721 432.862 377.323 431.549 378.916L359.716 273.482C361.466 272.499 363.184 271.558 364.869 270.661L418.22 348.967C416.943 351.395 417.01 353.548 419.457 355.098C419.911 355.643 421.29 356.028 423.2 356.276L435.37 374.139ZM441.662 365.572C443.004 363.625 444.174 361.828 445.121 360.263L442.074 355.791C440.198 356.093 437.885 356.324 435.459 356.467L441.662 365.572ZM441.863 327.293L437.238 330.889L387.388 257.723C389.091 256.713 390.781 255.708 392.423 254.728L441.863 327.293ZM449.791 321.126L401.022 249.546C402.961 248.363 404.655 247.314 405.996 246.461L454.416 317.529L449.791 321.126ZM462.344 311.363L413.746 240.033C414.978 238.59 416.185 236.726 416.953 234.356L466.969 307.766L462.344 311.363ZM466.974 307.773C466.439 308.33 466.5 308.302 467.017 307.838L466.974 307.773ZM474.484 300.994L406.078 200.59L398.498 180.558L401.108 182.911L478.875 297.054C477.35 298.405 475.864 299.741 474.484 300.994ZM440.087 211.934C437.736 212.35 434.207 210.843 430.921 208.866L486.524 290.478C487.933 289.29 489.436 288.029 491.026 286.7L440.087 211.934ZM498.778 280.275L437.283 190.015C431.078 175.641 422.202 160.65 417.722 153.765C418.417 153.883 419.194 154.069 420.045 154.329L503.321 276.558C501.757 277.831 500.242 279.071 498.778 280.275ZM526.419 282.272C524.99 284.015 523.707 285.655 522.656 287.134L525.422 291.194C526.826 290.317 528.497 289.278 530.392 288.104L526.419 282.272ZM533.161 274.364L533.811 273.616C534.919 272.342 536.032 271.063 537.123 269.796L543.935 279.793C542.203 280.846 540.533 281.865 538.936 282.842L533.161 274.364ZM547.363 256.637C546.456 258.155 545.222 259.888 543.776 261.757L552.528 274.603C554.175 273.614 555.854 272.611 557.556 271.598L547.363 256.637ZM541.961 248.707L492.406 175.974L489.223 181.687L536.259 250.725C536.766 250.343 537.274 249.961 537.784 249.578C538.905 249.428 539.939 249.182 540.88 248.957L540.885 248.956L541.174 248.888C541.325 248.852 541.473 248.817 541.619 248.784C541.734 248.757 541.848 248.732 541.961 248.707ZM497.862 166.179L566.207 266.492C567.889 265.508 569.58 264.523 571.273 263.543L501.045 160.466L497.862 166.179ZM528.272 256.804L483.767 191.482L480.584 197.195L523.637 260.387C525.158 259.205 526.703 258.01 528.272 256.804ZM475.253 207.173L515.733 266.589C514.171 267.826 512.642 269.044 511.146 270.241L469.112 208.545C471.305 208.977 473.431 208.461 475.253 207.173ZM373.681 265.792C375.284 264.855 376.983 263.858 378.737 262.828L429.502 337.339C428.026 338.582 426.5 339.879 425.05 341.189L373.681 265.792ZM211.7 384.103C210.206 385.37 208.712 386.639 207.219 387.911L227.611 417.842C229.176 416.593 230.704 415.366 232.184 414.168L211.7 384.103ZM235.027 418.341C233.948 420.129 232.836 421.968 231.7 423.843L260.676 466.373C262.45 465.521 264.238 464.651 265.991 463.788L235.027 418.341ZM195.092 398.3C196.578 397.02 198.066 395.741 199.554 394.464L219.728 424.074C218.202 425.271 216.659 426.475 215.11 427.681L195.092 398.3ZM222.637 438.73C223.757 436.9 224.874 435.071 225.982 433.253L243.038 458.288C241.733 459.363 240.148 460.547 238.356 461.801L222.637 438.73ZM251.477 470.674L246.342 463.136C245.635 465.438 244.766 467.781 243.788 469.773L246.015 473.042C247.597 472.395 249.453 471.587 251.477 470.674ZM262.414 514.914L258.758 509.549C257.667 511.564 256.601 513.48 255.574 515.26L257.799 518.526C259.23 517.405 260.773 516.198 262.414 514.914ZM229.962 467.283L216.886 448.091C215.752 449.93 214.627 451.748 213.519 453.534L224.948 470.308C226.657 469.3 228.338 468.287 229.962 467.283ZM207.166 433.825L187.459 404.899C185.975 406.185 184.494 407.473 183.014 408.761L202.52 437.391C204.056 436.215 205.607 435.025 207.166 433.825ZM170.982 419.288C172.455 417.994 173.931 416.698 175.41 415.402L194.538 443.478C192.94 444.692 191.382 445.874 189.873 447.016L170.982 419.288ZM204.309 468.204C205.399 466.494 206.539 464.693 207.717 462.821L216.208 475.284C214.452 476.249 212.716 477.183 211.031 478.07L204.309 468.204ZM248.577 525.805C248.931 525.401 249.303 524.942 249.693 524.431L249.905 524.743C249.415 525.133 248.971 525.487 248.577 525.805ZM246.788 527.467C247.308 527.132 247.909 526.568 248.577 525.805C246.532 527.452 245.818 528.091 246.788 527.467ZM201.986 482.598L198.39 477.32C196.993 479.418 195.791 481.167 194.833 482.483L196.523 484.964C198.014 484.397 199.872 483.589 201.986 482.598ZM181.863 453.062L163.405 425.97C161.931 427.275 160.46 428.578 158.993 429.88L177.185 456.581C178.595 455.521 180.164 454.342 181.863 453.062ZM147.046 440.531C148.506 439.224 149.972 437.913 151.443 436.6L169.179 462.633C167.581 463.888 166.077 465.134 164.653 466.374L147.046 440.531ZM157.279 473.355L139.52 447.289C138.263 448.421 137.011 449.55 135.763 450.676L153.753 477.081C154.89 475.846 156.06 474.604 157.279 473.355ZM123.892 461.44C125.341 460.121 126.797 458.797 128.261 457.468L146.863 484.771C145.533 486.262 144.196 487.744 142.818 489.219L123.892 461.44ZM135.692 496.562L116.414 468.267C114.953 469.605 113.501 470.936 112.059 472.26L131.517 500.82C133.063 499.243 134.463 497.816 135.692 496.562ZM100.264 483.136C101.699 481.807 103.146 480.469 104.605 479.122L124.36 508.119C123.023 509.483 121.629 510.905 120.186 512.377L100.264 483.136ZM113.034 519.682L92.8341 490.034C91.378 491.39 89.9356 492.735 88.5074 494.068L108.863 523.945C110.276 522.5 111.668 521.077 113.034 519.682ZM76.7915 505.06C78.2112 503.722 79.6486 502.37 81.1031 501.004L101.716 531.259C100.338 532.671 98.9474 534.096 97.5501 535.529L76.7915 505.06ZM90.4126 542.856L69.4141 512.035C67.9603 513.414 66.5284 514.775 65.1191 516.116L86.2523 547.134C87.636 545.71 89.0242 544.283 90.4126 542.856ZM53.8087 526.943C55.1042 525.695 56.4256 524.426 57.7718 523.135L79.127 554.479C77.7292 555.922 76.3437 557.354 74.9752 558.771L53.4854 527.229L53.8087 526.943ZM67.868 566.142L45.9194 533.927L41.5059 537.834L52.6581 554.203C55.228 552.904 57.1517 552.356 57.9537 552.998C59.2883 554.068 59.1764 557.933 58.4055 562.638L63.7298 570.453C65.0756 569.048 66.457 567.609 67.868 566.142ZM30.9201 550.485C32.2501 548.861 33.5454 547.284 34.7881 545.777L44.1181 559.471C42.5587 560.546 40.9562 561.693 39.3579 562.869L30.9201 550.485ZM53.8131 580.872C54.2727 579.441 54.789 577.743 55.3126 575.902L56.654 577.871C55.6747 578.902 54.7267 579.904 53.8131 580.872ZM31.3855 568.971L24.3169 558.596C23.0395 560.174 21.757 561.765 20.4828 563.353L26.824 572.661C28.1836 571.537 29.728 570.285 31.3855 568.971ZM10.1698 576.404C11.3804 574.841 12.646 573.222 13.9495 571.567L19.1876 579.255C17.7117 580.51 16.1955 581.784 14.6856 583.032L10.1698 576.404ZM6.82791 589.302L3.78523 584.836C2.35025 586.793 1.1295 588.519 0.187378 589.941L2.07084 592.705C3.42144 591.827 5.04407 590.657 6.82791 589.302Z" fill="#42C0B2"/>
</svg>
