<svg width="556" height="692" viewBox="0 0 556 692" fill="none" xmlns="http://www.w3.org/2000/svg">
<path fill-rule="evenodd" clip-rule="evenodd" d="M307.743 195.244L310.066 193.837L311.452 195.664L310.082 198.327L307.743 195.244ZM299.564 192.125L297.176 193.447L298.759 195.533L300.129 192.87L299.564 192.125ZM303.761 197.657L301.438 199.064L306.362 205.554L307.732 202.892L303.761 197.657ZM312.239 208.831L313.291 210.218L311.124 211.83L306.501 205.737L312.239 208.831ZM290.696 197.036L293.083 195.714L296.41 200.098L295.04 202.761L290.696 197.036ZM295.133 202.885L297.456 201.477L307.409 214.595L305.242 216.208L295.133 202.885ZM286.567 199.255C285.841 199.611 285.043 200.057 284.183 200.582L299.359 220.585L301.526 218.972L286.567 199.255ZM278.147 204.756C278.893 204.196 279.62 203.662 280.325 203.159L295.644 223.35L293.477 224.962L278.147 204.756ZM274.488 207.595C273.893 208.069 273.292 208.554 272.685 209.049L287.905 229.109L289.762 227.727L274.488 207.595ZM293.725 232.949C293.063 233.373 292.389 233.776 291.72 234.137L294.577 237.904L295.752 235.621L293.725 232.949ZM298.101 231.056L297.488 230.249C298.176 229.703 298.789 229.188 299.291 228.742L298.101 231.056ZM267.059 213.763C267.746 213.173 268.434 212.587 269.118 212.009L284.622 232.444C283.868 233.816 283.789 235.246 285.98 235.718C286.338 235.795 286.73 235.811 287.15 235.775L292.228 242.469L290.858 245.131L267.059 213.763ZM263.556 216.808C262.876 217.407 262.199 218.006 261.528 218.604L287.139 252.359L288.509 249.696L263.556 216.808ZM245.041 209.004L246.412 206.341L248.98 209.726C249.154 211.311 249.299 213.005 249.393 214.739L245.041 209.004ZM256.071 223.542C256.727 222.94 257.395 222.329 258.074 221.712L284.79 256.924L283.419 259.587L256.071 223.542ZM242.692 213.569L241.322 216.232L248.954 226.292C249.162 225.053 249.304 223.744 249.391 222.398L242.692 213.569ZM252.659 226.705C251.976 227.345 251.315 227.966 250.681 228.567L278.732 265.539C279.468 265.231 280.148 264.967 280.762 264.751L281.07 264.152L252.659 226.705ZM121.676 383.594L122.649 382.861L119.42 378.605C118.939 379.476 118.457 380.337 117.98 381.176L120.492 384.487L121.676 383.594ZM128.499 378.441C127.769 378.994 127.051 379.538 126.345 380.071L121.838 374.132C122.311 373.24 122.774 372.356 123.223 371.488L128.499 378.441ZM132.188 375.642C132.899 375.102 133.616 374.556 134.337 374.006L126.88 364.178C126.482 365.011 126.037 365.925 125.554 366.898L132.188 375.642ZM112.227 337.203L138.016 371.194C138.729 370.647 139.444 370.098 140.158 369.548L104.601 322.684C103.901 323.248 103.2 323.814 102.5 324.382L112.08 337.01C112.281 336.846 112.476 336.685 112.667 336.527L112.227 337.203ZM108.214 319.783C108.919 319.22 109.623 318.658 110.326 318.099L145.956 365.06C145.249 365.61 144.538 366.163 143.823 366.718L108.214 319.783ZM116.082 313.555C115.375 314.109 114.667 314.665 113.958 315.224L149.601 362.203C150.317 361.639 151.025 361.08 151.72 360.527L116.082 313.555ZM119.734 310.708C120.449 310.154 121.161 309.604 121.872 309.056L157.433 355.927C156.755 356.483 156.055 357.052 155.336 357.632L119.734 310.708ZM125.549 306.241L160.998 352.964C161.724 352.35 162.41 351.761 163.05 351.201L127.701 304.609C126.986 305.149 126.268 305.693 125.549 306.241ZM131.405 301.83L166.561 348.167C167.251 347.698 168.005 347.191 168.805 346.655L133.575 300.221C132.855 300.753 132.132 301.289 131.405 301.83ZM174.925 342.592C174.167 343.093 173.411 343.593 172.668 344.085L137.312 297.485C138.046 296.952 138.776 296.424 139.502 295.903L174.925 342.592ZM178.798 340.035L143.277 293.217C144.02 292.694 144.759 292.177 145.492 291.667L181.056 338.542C180.329 339.024 179.572 339.524 178.798 340.035ZM184.917 335.97L149.314 289.044C150.069 288.532 150.818 288.029 151.56 287.535L187.151 334.446C186.573 334.85 185.812 335.368 184.917 335.97ZM190.71 331.475L155.442 284.991C156.212 284.494 156.974 284.009 157.728 283.534L192.643 329.555C191.995 330.225 191.348 330.87 190.71 331.475ZM164.031 279.713C163.263 280.159 162.482 280.62 161.69 281.096L195.819 326.079C196.432 325.373 197.031 324.664 197.606 323.965L190.921 315.155C190.718 314.973 190.572 314.777 190.478 314.57L164.031 279.713ZM168.109 277.427C168.935 276.982 169.744 276.558 170.535 276.155L194.915 308.288C194.208 308.875 193.51 309.477 192.88 310.075L168.109 277.427ZM202.181 317.865L200.682 315.89C199.75 316.011 198.619 316.089 197.464 316.118L200.554 320.19C201.182 319.337 201.732 318.551 202.181 317.865ZM174.654 273.922L198.493 305.344L198.515 305.325L200.654 303.723L177.023 272.576C176.207 273.041 175.411 273.493 174.654 273.922ZM181.077 270.258L204.36 300.946L206.522 299.327L183.435 268.897C182.674 269.339 181.882 269.796 181.077 270.258ZM212.39 294.931L210.228 296.55L187.458 266.538C188.489 265.922 189.296 265.426 189.766 265.111L212.39 294.931ZM215.954 291.967L193.114 261.863C193.622 261.082 194.059 260.116 194.279 258.93L217.998 290.193C217.271 290.817 216.577 291.421 215.954 291.967ZM190.286 246.005L190.684 246.53L190.668 246.474C190.693 246.517 190.719 246.563 190.746 246.613L221.555 287.219C222.207 286.69 222.908 286.123 223.656 285.52L188.584 239.294L190.668 246.474C190.424 246.052 190.308 245.922 190.286 246.005ZM202.415 249.862C203.807 250.527 205.089 250.699 205.667 249.679L229.394 280.953C228.663 281.528 227.956 282.086 227.274 282.627L202.415 249.862ZM199.86 229.896C201.226 232.834 202.696 236.277 203.891 239.677L233.047 278.106C233.745 277.567 234.459 277.018 235.189 276.46L199.86 229.896ZM205.89 230.181L207.742 232.622C207.13 231.732 206.51 230.92 205.89 230.181ZM243.321 279.517L243.511 279.31L243.511 279.309C244.068 278.703 244.627 278.094 245.174 277.491L248.438 281.793C247.629 282.268 246.845 282.729 246.095 283.173L243.321 279.517ZM249.969 271.68C249.537 272.349 248.959 273.111 248.286 273.932L252.469 279.444C253.243 278.996 254.031 278.542 254.828 278.085L249.969 271.68ZM247.305 268.17L225.541 239.483L224.03 241.961L244.773 269.301C245.18 269.005 245.59 268.707 246.003 268.409C246.47 268.354 246.906 268.259 247.305 268.17ZM228.131 235.236L258.889 275.776C259.68 275.33 260.475 274.885 261.268 274.443L229.641 232.758L228.131 235.236ZM267.78 270.895C266.987 271.316 266.182 271.748 265.37 272.188L232.231 228.51L233.742 226.032L267.78 270.895ZM271.949 268.729L237.603 223.46L238.973 220.797L247.3 231.772L247.271 231.83L247.313 231.789L274.413 267.507C273.62 267.891 272.797 268.3 271.949 268.729ZM241.043 272.046L221.786 246.665C221.275 247.556 220.63 248.239 219.916 248.669L238.879 273.662C239.588 273.129 240.31 272.59 241.043 272.046ZM240.162 283.014C239.499 283.773 238.896 284.491 238.388 285.145L239.759 286.953C240.432 286.548 241.214 286.078 242.089 285.555L240.162 283.014ZM96.8123 329.016C97.5096 328.445 98.2071 327.874 98.9046 327.305L108.461 339.901C107.774 340.44 107.061 340.994 106.328 341.559L96.8123 329.016ZM107.967 343.719C108.506 342.899 109.031 342.097 109.539 341.321L124.814 361.454C124.049 361.832 123.213 362.24 122.339 362.662L107.967 343.719ZM102.648 344.369L93.2333 331.96C92.5382 332.534 91.8437 333.108 91.1498 333.683L100.491 345.995C101.216 345.451 101.937 344.908 102.648 344.369ZM105.267 347.821L113.195 358.27C113.09 358.39 112.954 358.599 112.786 358.909C112.578 359.295 112.093 359.793 111.398 360.371L103.689 350.209C104.219 349.409 104.746 348.611 105.267 347.821ZM113.476 358.641C113.421 359.316 113.111 360.599 112.643 362.012L115.541 365.831C116.35 365.47 117.2 365.083 118.061 364.684L113.476 358.641ZM110.463 366.8L111.129 367.678C109.765 368.178 109.117 368.278 109.718 367.708C109.969 367.47 110.219 367.161 110.463 366.8ZM100.975 354.294L107.618 363.05C106.893 363.516 106.119 363.995 105.312 364.48L99.3875 356.671C99.9123 355.887 100.443 355.093 100.975 354.294ZM87.5854 336.646L96.7804 348.765C96.0529 349.306 95.3278 349.842 94.6094 350.373L85.5103 338.38C86.201 337.802 86.8927 337.224 87.5854 336.646ZM116.793 387.273L115.444 385.495C114.991 386.238 114.551 386.94 114.129 387.592L114.944 388.667C115.517 388.234 116.135 387.769 116.793 387.273ZM101.269 366.811L96.6553 360.731C96.1871 361.422 95.7286 362.097 95.2825 362.752L99.213 367.932C99.8955 367.567 100.584 367.192 101.269 366.811ZM90.879 353.117L81.9596 341.361C81.3678 341.86 80.777 342.358 80.1874 342.856L89.0102 354.485C89.6185 354.04 90.2426 353.584 90.879 353.117ZM74.5885 347.606C75.2734 347.023 75.9602 346.438 76.6489 345.853L85.2666 357.212C84.4814 357.782 83.7486 358.314 83.0798 358.798L74.5885 347.606ZM90.8801 369.079C91.3744 368.392 91.9231 367.616 92.5161 366.767L95.0342 370.086C94.1473 370.523 93.3086 370.922 92.5429 371.271L90.8801 369.079ZM110.493 392.161C110.061 392.429 110.367 392.165 111.26 391.472L111.268 391.482C110.976 391.792 110.716 392.022 110.493 392.161ZM79.3305 361.518L71.0624 350.62C70.3755 351.209 69.691 351.796 69.009 352.383L77.1945 363.171C77.8684 362.623 78.5781 362.072 79.3305 361.518ZM63.4481 357.183C64.1272 356.595 64.8095 356.004 65.4947 355.412L73.7172 366.249C73.0445 366.893 72.404 367.533 71.7838 368.17L63.4481 357.183ZM68.5579 371.579L59.9453 360.228C59.2616 360.823 58.5815 361.417 57.9053 362.008L66.6701 373.56C67.3102 372.904 67.9347 372.244 68.5579 371.579ZM52.3804 366.856C53.0537 366.263 53.7315 365.666 54.4138 365.067L63.3442 376.838C62.7759 377.391 62.1216 378.027 61.3931 378.735L52.3804 366.856ZM58.0481 381.987L48.9003 369.93C48.2192 370.533 47.5435 371.133 46.8735 371.728L56.0973 383.885C56.7724 383.228 57.424 382.594 58.0481 381.987ZM41.3848 376.624C42.0513 376.027 42.7247 375.424 43.4048 374.817L52.754 387.14C52.1163 387.761 51.4657 388.395 50.8045 389.039L41.3848 376.624ZM47.4642 392.298L37.9281 379.729C37.2486 380.341 36.5776 380.946 35.9153 381.545L45.5167 394.2C46.1702 393.561 46.82 392.927 47.4642 392.298ZM30.4665 386.493C31.1237 385.893 31.7921 385.284 32.4714 384.667L42.1804 397.464C41.5317 398.099 40.8828 398.735 40.2357 399.369L30.4665 386.493ZM36.9048 402.64L27.0371 389.634L26.4868 390.14L24.993 391.409L34.9639 404.551C35.6041 403.92 36.2518 403.283 36.9048 402.64ZM20.5546 395.178L21.4579 394.411L27.1455 401.907C26.6138 401.852 25.6644 402.225 24.4803 402.863L19.5308 396.34C19.8895 395.932 20.2317 395.544 20.5546 395.178ZM27.3162 406.601C27.6923 404.987 27.8985 403.571 27.7645 402.723L31.6413 407.833C30.9822 408.485 30.3364 409.126 29.7064 409.752L27.3162 406.601ZM26.3976 413.052L25.6943 412.125C25.3715 413.075 25.0546 413.952 24.7793 414.678C25.2963 414.157 25.8366 413.614 26.3976 413.052ZM20.5346 405.324L16.4189 399.899C15.8314 400.575 15.2263 401.273 14.6107 401.985L18.323 406.878C19.0593 406.347 19.804 405.822 20.5346 405.324ZM9.73153 407.684C10.3235 406.985 10.9229 406.281 11.5237 405.577L14.6154 409.652C14.0283 410.107 13.4826 410.537 12.9959 410.926C12.8368 411.061 12.6731 411.199 12.5055 411.34L9.73153 407.684ZM8.93183 414.291L6.67928 411.322C6.06484 412.063 5.47394 412.781 4.91548 413.467L6.81891 415.975C7.51798 415.427 8.22977 414.859 8.93183 414.291ZM0.368485 419.474C0.677428 418.949 1.22363 418.175 1.94845 417.217L3.11478 418.754C2.14926 419.431 1.34353 419.94 0.807219 420.182L0.325928 419.548C0.339499 419.524 0.353683 419.499 0.368485 419.474Z" fill="#42C0B2"/>
<path fill-rule="evenodd" clip-rule="evenodd" d="M466.978 381.104L464.223 382.945L465.585 384.74L467.144 381.324L466.978 381.104ZM456.748 387.943L459.502 386.101L462.912 390.596L461.353 394.012L456.748 387.943ZM446.526 383.85L443.694 385.588L447.008 389.956L448.567 386.54L446.526 383.85ZM452.026 391.099L449.272 392.94L462.046 409.777L464.61 407.685L452.026 391.099ZM469.004 404.097L469.139 403.987L468.796 403.823L469.004 404.097ZM436.005 390.305L438.838 388.567L444.335 395.812L444.053 396.429L444.551 396.097L457.651 413.364L455.088 415.457L436.005 390.305ZM431.083 393.197C430.223 393.744 429.308 394.369 428.346 395.061L448.129 421.136L450.693 419.044L431.083 393.197ZM421.288 400.609C422.159 399.88 423.012 399.178 423.845 398.508L443.735 424.723L441.171 426.816L421.288 400.609ZM449.835 432.763L448.943 431.588C448.155 432.268 447.29 432.979 446.381 433.683L448.275 436.179L449.835 432.763ZM416.984 404.315C416.166 405.036 415.34 405.773 414.508 406.523L434.271 432.572C434.424 432.397 434.575 432.233 434.721 432.08L436.776 430.403L416.984 404.315ZM441.704 436.897C440.684 437.499 439.671 438.019 438.703 438.413L444.043 445.452L445.602 442.035L441.704 436.897ZM407.884 412.644C408.693 411.88 409.502 411.121 410.31 410.37L441.37 451.308L439.81 454.724L407.884 412.644ZM403.758 416.585C403.071 417.248 402.388 417.912 401.709 418.574L435.801 463.508L437.137 460.58L403.758 416.585ZM380.525 405.504L382.085 402.088L384.545 405.33C384.927 407.435 385.291 409.756 385.588 412.176L380.525 405.504ZM395.276 424.945C396.049 424.168 396.837 423.381 397.637 422.586L433.128 469.365L431.568 472.781L395.276 424.945ZM377.852 411.36L376.293 414.776L386.132 427.745C386.274 426.063 386.328 424.303 386.313 422.511L377.852 411.36ZM391.252 429.022C390.449 429.843 389.67 430.643 388.92 431.419L425.058 479.051C426.148 478.502 427.167 478.012 428.103 477.592L391.252 429.022ZM372.06 424.049L373.62 420.633L384.658 435.181C384.505 435.602 384.341 436.006 384.164 436.394C384.419 436.124 384.68 435.847 384.948 435.564L419.986 481.745C419.043 482.267 418.072 482.815 417.077 483.383L372.06 424.049ZM368.686 428.981L367.076 428.21L365.766 430.603L409.291 487.971C410.25 487.391 411.203 486.82 412.145 486.261L368.686 428.981ZM224.506 639.919L226.905 643.081C226.006 643.824 225.153 644.528 224.354 645.189L222.779 643.114C223.339 642.106 223.917 641.035 224.506 639.919ZM217.061 615.256C216.59 616.515 216.052 617.705 215.476 618.637L216.305 619.731C217.139 619.386 218.196 618.905 219.394 618.331L217.061 615.256ZM218.865 608.253C218.957 607.277 218.817 606.902 218.371 607.603L207.907 593.81C208.523 592.774 209.132 591.749 209.73 590.741L227.53 614.203C226.538 614.726 225.537 615.248 224.555 615.753L218.865 608.253ZM214.662 582.391C214.084 583.374 213.477 584.404 212.847 585.471L232.589 611.491C233.658 610.907 234.649 610.359 235.513 609.874L214.662 582.391ZM214.014 581.538L201.558 565.12C200.732 565.853 199.906 566.589 199.08 567.326L211.512 583.712C212.383 582.963 213.22 582.236 214.014 581.538ZM205.814 561.351L251.998 622.223C252.469 621.827 252.94 621.43 253.411 621.033C253.784 620.719 254.157 620.404 254.531 620.089L208.304 559.16C207.474 559.888 206.645 560.619 205.814 561.351ZM261.384 614.271C260.549 614.985 259.708 615.701 258.863 616.42L212.582 555.42C213.417 554.692 214.251 553.968 215.084 553.246L261.384 614.271ZM265.694 610.572L219.385 549.536C220.226 548.815 221.065 548.096 221.902 547.382L268.199 608.403C267.376 609.119 266.54 609.842 265.694 610.572ZM228.762 541.572C227.92 542.279 227.075 542.991 226.229 543.706L272.475 604.659C273.323 603.911 274.15 603.177 274.956 602.458L228.762 541.572ZM233.118 537.935C233.971 537.227 234.822 536.524 235.669 535.826L281.609 596.376C280.841 597.1 280.028 597.856 279.175 598.639L233.118 537.935ZM242.631 530.151C241.777 530.839 240.92 531.533 240.059 532.233L285.697 592.385C285.807 592.272 285.915 592.161 286.021 592.051C286.083 591.987 286.144 591.923 286.205 591.86L286.207 591.861C286.847 591.381 287.541 590.864 288.279 590.317L242.631 530.151ZM247.06 526.609C247.93 525.919 248.795 525.235 249.656 524.559L295.521 585.011C294.615 585.67 293.72 586.322 292.848 586.959L247.06 526.609ZM256.757 519.067C255.887 519.729 255.012 520.399 254.131 521.078L300.108 581.677L300.162 581.638L300.164 581.637L300.165 581.636L300.166 581.635L300.169 581.633L300.195 581.614C301.07 580.979 301.936 580.35 302.784 579.733L256.757 519.067ZM307.367 576.394C308.328 575.691 309.224 575.033 310.032 574.436L263.949 513.697C263.069 514.34 262.182 514.995 261.287 515.659L307.367 576.394ZM268.55 510.381L314.511 570.959C315.289 570.261 316.092 569.484 316.908 568.648L271.259 508.48C270.365 509.1 269.462 509.734 268.55 510.381ZM275.952 505.286L320.784 564.376C321.514 563.519 322.238 562.641 322.948 561.757L278.723 503.467C277.812 504.056 276.888 504.662 275.952 505.286ZM328.531 554.265C327.909 555.17 327.236 556.119 326.524 557.092L319.744 548.155C320.957 548.231 322.413 548.224 323.893 548.152L328.531 554.265ZM331.763 549.146C332.97 546.949 333.18 545.869 331.822 546.821C331.553 547.01 331.055 547.188 330.4 547.349L331.763 549.146ZM323.044 536.491L323.08 536.46L323.086 536.454L323.086 536.454L323.088 536.452C323.762 535.856 324.408 535.283 324.991 534.748L294.144 494.091C293.162 494.708 292.216 495.301 291.331 495.855L322.517 536.959L322.738 536.763L323.044 536.491ZM298.957 491.055L329.336 531.096L331.894 528.995L301.759 489.276C300.838 489.863 299.898 490.459 298.957 491.055ZM306.545 486.205C307.573 485.54 308.511 484.926 309.319 484.39L338.835 523.293L336.277 525.394L306.545 486.205ZM343.218 519.692L313.8 480.917C314.475 480.284 315.272 479.415 315.937 478.262L345.706 517.498L345.42 517.774C344.171 518.982 343.592 519.542 344.195 518.889L343.218 519.692ZM349.83 513.555C350.617 512.814 351.439 512.049 352.265 511.293L311.284 457.279L311.743 458.607C310.288 456.354 312.143 460.771 313.656 464.141L311.743 458.607C312.25 459.391 313.158 460.984 314.623 463.712C315.987 466.255 316.754 468.478 317.1 470.416L349.83 513.555ZM313.891 451.335L356.505 507.502C357.291 506.807 358.122 506.076 358.994 505.311L325.872 461.655C324.747 461.044 323.629 460.282 322.691 459.553L313.891 451.335ZM331.711 459.971L363.28 501.581C364.092 500.879 364.93 500.158 365.792 499.42L329.374 451.42C330.019 453.13 330.592 454.814 331.059 456.428C331.481 457.889 331.684 459.055 331.711 459.971ZM319.64 429.211L370.119 495.745C370.948 495.047 371.794 494.337 372.657 493.617L347.53 460.5C345.15 460.62 342.529 458.694 340.692 453.91C339.901 451.849 339.061 449.945 338.187 448.186L327.013 433.458C324.195 431.138 321.597 429.819 319.64 429.211ZM382.69 497.462C383.421 496.589 384.152 495.714 384.862 494.853L389.213 500.588C388.256 501.208 387.327 501.812 386.432 502.395L382.69 497.462ZM390.284 487.542C389.825 488.348 389.209 489.262 388.486 490.251L393.994 497.51C394.913 496.923 395.847 496.327 396.792 495.727L390.277 487.14C390.28 487.27 390.283 487.404 390.284 487.542ZM387.218 483.109L358.061 444.678L356.321 447.856L384.012 484.353C384.295 484.127 384.58 483.901 384.865 483.674C385.5 483.571 386.087 483.412 386.621 483.267C386.828 483.21 387.027 483.157 387.218 483.109ZM361.043 439.23L401.608 492.695C402.546 492.109 403.487 491.524 404.429 490.942L362.783 436.051L361.043 439.23ZM379.592 487.908L353.338 453.304L353.155 453.639C352.95 454.946 352.568 456.108 352.057 457.087L377.029 490C377.87 489.31 378.725 488.612 379.592 487.908ZM378.973 501.942C378.209 502.883 377.495 503.788 376.862 504.631L378.916 507.338C379.742 506.79 380.668 506.177 381.68 505.51L378.973 501.942ZM318.377 540.882L286.408 498.745C285.471 499.287 284.517 499.853 283.545 500.443L316.279 543.587C316.768 542.729 317.507 541.813 318.377 540.882ZM247.649 625.87L237.397 612.357C236.974 613.397 236.476 614.583 235.919 615.88L245.109 627.993C245.95 627.291 246.797 626.583 247.649 625.87ZM231.733 625.214C232.271 624.056 232.794 622.914 233.297 621.805L240.747 631.624C239.887 632.339 239.037 633.044 238.201 633.739L231.733 625.214ZM207.185 587.388L194.843 571.12C194.02 571.859 193.198 572.599 192.376 573.34L204.645 589.512C205.506 588.796 206.354 588.087 207.185 587.388ZM228.998 630.989C228.458 632.105 227.914 633.218 227.369 634.313L231.28 639.468C232.107 638.784 232.958 638.08 233.831 637.358L228.998 630.989ZM188.157 577.158C187.337 577.902 186.518 578.647 185.7 579.392L197.711 595.223C198.565 594.525 199.42 593.825 200.271 593.126L188.157 577.158ZM204.774 599.061C204.164 600.081 203.552 601.101 202.942 602.117L211.783 613.77C212.751 613.083 213.645 612.42 214.438 611.798L204.774 599.061ZM179.051 585.478C179.865 584.73 180.68 583.981 181.497 583.232L193.309 598.8C192.44 599.503 191.581 600.197 190.735 600.879L179.051 585.478ZM197.944 610.381C198.549 609.388 199.166 608.373 199.79 607.342L207.076 616.945C206.159 617.537 205.219 618.132 204.271 618.72L197.944 610.381ZM219.985 648.812L219.64 648.356C219.116 649.139 218.634 649.798 218.202 650.31C218.062 650.429 217.933 650.539 217.815 650.64L217.858 650.698C217.874 650.68 217.891 650.663 217.907 650.645C217.93 650.621 217.953 650.595 217.976 650.57C218.01 650.532 218.045 650.493 218.079 650.453C218.101 650.428 218.123 650.403 218.145 650.377C218.164 650.355 218.183 650.333 218.202 650.31C218.677 649.907 219.275 649.404 219.985 648.812ZM199.383 621.657L194.762 615.566C194.208 616.461 193.672 617.322 193.158 618.142L196.901 623.075C197.708 622.622 198.539 622.148 199.383 621.657ZM186.313 604.431L174.864 589.339C174.166 589.985 173.469 590.63 172.774 591.274L184.099 606.202C184.813 605.632 185.552 605.04 186.313 604.431ZM166.171 597.423C166.979 596.668 167.789 595.911 168.601 595.154L179.665 609.736L178.608 610.577L177.607 611.372L177.55 611.418L177.535 611.429L177.075 611.795L166.171 597.423ZM187.936 626.109C188.437 625.432 189.105 624.455 189.906 623.235L191.834 625.776C190.6 626.39 189.545 626.87 188.745 627.176L187.936 626.109ZM172.684 615.387L162.013 601.321C161.202 602.083 160.395 602.843 159.591 603.601L170.235 617.631C171.009 616.888 171.822 616.14 172.684 615.387ZM153.032 609.808C153.833 609.047 154.638 608.283 155.446 607.517L166.245 621.751C165.475 622.599 164.736 623.442 164.012 624.279L153.032 609.808ZM160.235 628.68L148.901 613.742C148.095 614.512 147.293 615.279 146.496 616.042L157.99 631.192C158.76 630.358 159.503 629.521 160.235 628.68ZM139.98 622.305C140.774 621.539 141.573 620.768 142.378 619.994L154.059 635.39L151.954 637.63L151.946 637.639L151.933 637.652L151.93 637.656L151.924 637.662L151.762 637.835L139.98 622.305ZM147.825 642.026L135.875 626.275C135.072 627.053 134.275 627.827 133.485 628.595L145.53 644.471L147.008 642.897L147.825 642.026ZM127.012 634.914C127.798 634.144 128.592 633.366 129.394 632.583L141.595 648.665C140.844 649.466 140.078 650.283 139.301 651.112L127.012 634.914ZM135.37 655.311L122.935 638.92C122.134 639.709 121.343 640.49 120.561 641.263L133.079 657.762C133.847 656.94 134.612 656.122 135.37 655.311ZM114.134 647.643C114.911 646.869 115.699 646.084 116.499 645.289L129.153 661.967C128.39 662.785 127.626 663.604 126.864 664.422L114.134 647.643ZM122.945 668.635L110.089 651.691C109.438 652.345 108.797 652.99 108.167 653.625L107.72 654.04L120.661 671.096C121.415 670.283 122.177 669.462 122.945 668.635ZM101.114 660.183L103.548 657.92L116.751 675.322C115.977 676.16 115.217 676.984 114.473 677.792L110.618 672.71C110.835 670.819 110.764 669.382 110.199 668.915C109.841 668.62 109.066 668.787 108.014 669.279L101.114 660.183ZM110.578 682.038L109.092 680.078C108.716 681.494 108.319 682.86 107.952 684.048L108.313 684.524C109.037 683.727 109.793 682.897 110.578 682.038ZM103.179 672.285L97.4216 664.697C96.74 665.553 96.0295 666.448 95.2992 667.371L100.521 674.253C101.423 673.563 102.318 672.899 103.179 672.285ZM89.5707 674.671C90.2723 673.768 90.976 672.867 91.6753 671.974L96.0841 677.785C95.1885 678.522 94.333 679.242 93.5476 679.913L89.5707 674.671ZM89.3149 683.713L85.9824 679.321C85.2718 680.25 84.5764 681.164 83.9043 682.053L86.8428 685.926C87.6856 685.181 88.5179 684.435 89.3149 683.713ZM78.3714 689.612C78.961 688.762 79.6377 687.814 80.3825 686.791L82.5411 689.636C81.6311 690.396 80.7622 691.102 79.9701 691.719L78.3714 689.612Z" fill="#5C65B3"/>
<path fill-rule="evenodd" clip-rule="evenodd" d="M230.572 203.437C223.234 211.27 200.811 230.227 188.845 240.343C185.7 243.002 183.278 245.05 182.041 246.125C186.366 240.883 197.784 214.477 196.635 215.385C195.412 216.35 177.037 226.555 179.303 224.152C181.568 221.748 183.308 212.381 181.695 215.806C180.083 219.232 156.931 232.901 159.832 229.381C162.153 226.565 174.518 205.282 180.411 194.993C173.21 201.673 158.484 213.659 152.702 218.364C151.931 218.992 151.319 219.49 150.905 219.829C146.911 223.099 144.313 226.208 141.785 229.235C140.758 230.465 139.742 231.681 138.648 232.889C138.138 233.452 136.6 235.126 134.398 237.522C126.776 245.817 111.197 262.77 102.757 272.296C103.881 268.745 105.821 261.393 104.594 260.394C103.366 259.395 95.4199 265.998 91.6 269.424C87.1228 273.677 78.5952 281.353 80.3026 278.037C82.0098 274.722 92.6824 260.884 97.8052 254.379L103.06 249.382C133.863 217.648 200.1 153.141 232.368 135.062C237.763 131.609 248.6 124.596 248.789 124.171C248.82 124.101 248.962 123.979 249.173 123.799C250.543 122.63 254.801 118.998 250.336 110.797C249.271 108.841 248.611 107.699 248.243 107.138L244.776 97.2964L256.108 107.734C258.984 109.936 264.209 112.555 262.1 105.414C259.99 98.273 254.969 89.2549 252.722 85.6385C256.003 86.1078 263.852 90.3414 269.003 103.522C271.836 110.771 277.114 108.818 277.95 103.228L287.818 84.7802L289.641 85.6347L299.322 63.8945C300.849 69.9511 303.149 83.7609 300.126 90.5481C308.653 81.2986 327.691 61.8071 335.63 57.8367L347.883 50.1194L342.924 61.2547L359.581 49.8333L353.678 63.0896L360.972 66.5076L336.402 87.0386C335.007 88.5212 333.041 91.6163 336.337 92.1351C339.632 92.6539 345.721 87.5599 348.353 84.9481L333.006 119.414C322.862 123.633 293.595 143.886 293.595 143.886C292.272 143.266 295.644 139.151 299.119 134.91C301.385 132.144 303.694 129.325 304.775 127.386C304.704 123.599 303.752 123.869 302.124 124.332C301.741 124.44 301.321 124.56 300.865 124.639C291.365 132.364 283.549 139.377 278.835 143.67C276.546 145.754 274.075 148.198 272.716 149.542C271.825 150.423 271.412 150.831 271.842 150.356L258.629 161.468C258.1 161.989 257.456 162.572 256.774 163.19C253.663 166.008 249.754 169.55 252.291 171.159C253.119 172.188 261.802 171.527 263.098 170.597C266.358 168.255 257.021 182.593 250.487 188.416C249.543 189.257 245.205 192.485 240.547 195.951C236.937 198.638 233.135 201.467 230.573 203.438L230.572 203.437ZM249.644 111.113C248.541 108.695 247.187 105.525 248.243 107.138L249.644 111.113ZM181.306 246.857C180.909 247.136 181.202 246.854 182.041 246.125C181.765 246.459 181.519 246.707 181.306 246.857Z" fill="#42C0B2"/>
<path fill-rule="evenodd" clip-rule="evenodd" d="M322.709 396.084C310.14 409.263 271.805 441.089 251.348 458.074C245.971 462.537 241.829 465.976 239.715 467.781C247.132 458.952 266.908 414.32 264.944 415.842C262.854 417.462 231.521 434.5 235.402 430.455C239.283 426.411 242.376 410.544 239.588 416.331C236.8 422.119 197.309 444.963 202.285 439.033C206.266 434.289 227.57 398.365 237.724 380.996C225.405 392.222 200.233 412.337 190.353 420.233C189.035 421.286 187.989 422.121 187.282 422.69C180.455 428.177 176 433.414 171.665 438.511C169.903 440.583 168.161 442.631 166.287 444.664C165.412 445.613 162.777 448.43 159.004 452.462C145.944 466.422 119.254 494.951 104.79 510.987C106.75 504.978 110.153 492.532 108.086 490.819C106.019 489.106 92.4349 500.189 85.9014 505.944C78.24 513.092 63.654 525.988 66.6013 520.388C69.5485 514.788 87.8674 491.469 96.6584 480.51L105.649 472.111C158.397 418.733 271.766 310.279 326.793 280.093C336 274.315 354.494 262.579 354.821 261.862C354.875 261.742 355.119 261.538 355.48 261.236C357.821 259.274 365.101 253.175 357.649 239.191C355.872 235.857 354.77 233.909 354.154 232.951L348.421 216.2L367.49 234.081C372.337 237.862 381.163 242.386 377.692 230.237C374.22 218.087 365.837 202.709 362.08 196.539C367.64 197.385 380.894 204.688 389.434 227.131C394.131 239.474 403.116 236.24 404.62 226.768L421.643 195.615L424.724 197.092L441.479 160.35C443.979 170.65 447.672 194.118 442.441 205.588C457.049 190.023 489.648 157.238 503.18 150.622L524.086 137.713L515.504 156.532L543.941 137.405L533.724 159.808L546.049 165.719L504.047 200.183C501.657 202.678 498.275 207.9 503.858 208.83C509.442 209.76 519.85 201.209 524.357 196.817L497.793 255.067C480.517 262.072 430.55 295.993 430.55 295.993C428.314 294.921 434.098 287.99 440.058 280.846C443.945 276.188 447.907 271.439 449.77 268.166C449.706 261.739 448.088 262.183 445.318 262.942C444.667 263.121 443.951 263.317 443.178 263.446C426.94 276.409 413.571 288.189 405.508 295.403C401.593 298.905 397.363 303.014 395.037 305.273C393.512 306.755 392.805 307.441 393.541 306.641L370.953 325.296C370.047 326.171 368.946 327.151 367.78 328.189C362.458 332.924 355.771 338.875 360.052 341.644C361.44 343.402 376.184 342.413 378.398 340.853C383.965 336.93 367.904 361.116 356.728 370.897C355.114 372.31 347.704 377.723 339.748 383.534C333.582 388.037 327.089 392.78 322.712 396.085L322.709 396.084ZM356.47 239.718C354.636 235.598 352.386 230.198 354.154 232.951L356.47 239.718ZM238.456 469.012C237.779 469.479 238.28 469.006 239.715 467.781C239.242 468.344 238.82 468.761 238.456 469.012Z" fill="#5C65B3"/>
</svg>
